<?xml version="1.0" encoding="UTF-8"?>
<svg width="217px" height="76px" viewBox="0 0 217 76" version="1.1" xmlns="http://www.w3.org/2000/svg" xmlns:xlink="http://www.w3.org/1999/xlink">
    <!-- Generator: Sketch 56.2 (81672) - https://sketch.com -->
    <title>Alipay</title>
    <desc>Created with Sketch.</desc>
    <g id="页面1" stroke="none" stroke-width="1" fill="none" fill-rule="evenodd">
        <g id="logo-svg" transform="translate(-326.000000, -1489.000000)" fill-rule="nonzero">
            <g id="Alipay" transform="translate(326.000000, 1489.000000)">
                <path d="M12.3345529,0 C5.51632288,0 0,5.44950783 0,12.1773484 L0,63.8249316 C0,70.5474521 5.51632288,76 12.3345529,76 L64.6676593,76 C71.4805495,76 76.9991609,70.5477055 76.9991609,63.8249316 L76.9991609,63.2964983 C76.7698421,63.2021079 56.987933,55.0580159 46.9332432,50.2859282 C40.1498494,58.5254239 31.4003724,63.5242472 22.3160103,63.5242472 C6.9545234,63.5242472 1.73799515,50.2545145 9.01163837,41.5192405 C10.5976257,39.6151682 13.2954722,37.7959633 17.4826802,36.7775531 C24.0329004,35.1890612 34.4573114,37.7693884 44.2277175,40.9517682 C45.985165,37.7561896 47.4636687,34.2368477 48.5649499,30.4897569 L18.4558049,30.4897569 L18.4558049,27.4798735 L33.9813016,27.4798735 L33.9813016,22.0830595 L15.1771349,22.0830595 L15.1771349,19.0706427 L33.9813016,19.0706427 L33.9813016,11.3720191 C33.9813016,11.3720191 33.9813067,10.0751674 35.3127813,10.0751674 L42.902493,10.0751674 L42.902493,19.0706174 L61.4920485,19.0706174 L61.4920485,22.0830342 L42.902493,22.0830342 L42.902493,27.4798481 L58.0763223,27.4798481 C56.624289,33.3511602 54.419794,38.7555742 51.6522243,43.499795 C56.2574665,45.1439701 60.3912759,46.7034804 63.472117,47.7218906 C73.7482835,51.1158312 76.6282445,51.530542 77,51.5738624 L77,12.1776018 C77,5.44976116 71.4811343,0 64.6684985,0 L12.335392,0 L12.3345529,0 Z M20.7783868,41.1772118 C20.1190166,41.184751 19.4566714,41.2201877 18.7893423,41.2850771 C16.8657999,41.4760138 13.2542028,42.3138994 11.2797284,44.0375713 C5.36164512,49.1319023 8.9037479,58.4450354 20.881802,58.4450354 C27.8447166,58.4450354 34.8017828,54.0511781 40.2669956,47.0157878 C33.2211862,43.6223538 27.1523156,41.1041953 20.7783106,41.177156 L20.7783868,41.1772118 Z" id="形状" fill="#00A1E9"></path>
                <path d="M210.51065,53.7168203 L207.073058,61.0805435 L203.584349,53.7168203 L200.176004,53.7168203 L205.483836,63.8978651 L205.483836,70.9997475 L208.610654,70.9997475 L208.610654,63.8978651 L208.629422,63.8582185 L213.915893,53.7168203 L210.51065,53.7168203 Z M185.341233,58.1718192 L187.766112,65.339855 L182.830598,65.339855 L185.341233,58.1718192 Z M188.511029,67.5178632 L189.679256,70.9987375 L192.95612,70.9987375 L186.504119,53.7155629 L183.99885,53.7155629 L177.568211,70.9987375 L180.847873,70.9987375 L182.067014,67.5178632 L188.511029,67.5178632 Z M164.054969,61.9789151 L160.574398,61.9789151 L160.574398,56.0662766 L164.054969,56.0662766 C165.804639,56.0662766 166.849649,57.5754803 166.849649,59.0343368 C166.849649,60.4616063 165.871651,61.9786626 164.054969,61.9786626 L164.054969,61.9789151 Z M164.23181,53.7163203 L157.423258,53.7163203 L157.423258,70.999495 L160.574235,70.999495 L160.574235,64.3548781 L164.231556,64.3548781 C167.628966,64.3548781 170.003007,62.1664167 170.003007,59.0343368 C170.003007,55.9022569 167.629042,53.7165728 164.231556,53.7165728 L164.23181,53.7163203 Z M141.494164,70.9997475 L144.647939,70.9997475 L144.647939,53.7165728 L141.494164,53.7165728 L141.494164,70.9997475 Z M119.327204,53.7168253 L119.327204,71 L129.934985,71 L129.934985,68.6450191 L122.478181,68.6450191 L122.478181,53.7168253 L119.327204,53.7168253 Z M101.375788,58.1718192 L103.797997,65.339855 L98.8652804,65.339855 L101.375788,58.1718192 Z M104.545585,67.5178632 L105.713811,70.9987375 L108.988132,70.9987375 L102.536131,53.7155629 L100.033533,53.7155629 L93.6028938,70.9987375 L96.8797577,70.9987375 L98.0988986,67.5178632 L104.545585,67.5178632 Z M126.729584,19.9304282 L113.211917,19.9304282 L113.211917,15.1517377 L128.886694,15.1517377 L128.886694,12.1755977 L113.211917,12.1755977 L113.211917,6.12030049 L106.224071,6.12030049 C105.457766,6.12030049 104.838811,6.75463971 104.838811,7.5343394 L104.838811,12.1756735 L89.2738985,12.1756735 L89.2738985,15.1518134 L104.838811,15.1518134 L104.838811,19.9305039 L91.7016007,19.9305039 L91.7016007,22.9038664 L117.868192,22.9038664 C117.868192,22.9038664 116.418615,28.4887684 109.240516,34.491042 C102.809877,29.6886171 100.660905,25.8640993 100.660905,25.8640993 L93.6407615,25.8640993 C96.4809645,30.7195478 100.516199,34.6074415 104.862208,37.6919011 C100.869953,40.250417 95.693093,42.7165202 89,44.6907663 L89,48.2537009 C89,48.2537009 99.3265082,46.3321755 109.307401,40.5306847 C119.304315,46.2872822 129.344209,48.2537009 129.344209,48.2537009 L129.344209,44.8811463 C122.918911,42.5737352 117.82801,40.0363025 113.830414,37.5888838 C119.620684,33.3573466 124.695564,27.6138787 126.729076,19.9305039 L126.729584,19.9304282 Z M170.639306,6.71651321 L163.603141,6.71651321 L163.603141,13.9691342 L146.259286,13.9691342 L146.259286,16.8897256 L163.603141,16.8897256 L163.603141,42.9647212 C163.541512,43.5620702 163.064575,44.0272388 162.467059,44.058952 L158.890102,44.058952 L158.890102,47.0800358 L168.010898,47.0800358 C169.455108,47.021889 170.607211,45.8404446 170.63951,44.3760837 L170.63951,16.8896499 L173.495735,16.8896499 L173.495735,13.9690585 L170.63951,13.9690585 L170.639306,6.71651321 Z M155.800466,21.8098124 C155.543251,21.2917717 155.018062,20.934948 154.40717,20.9296709 L148.544673,20.9296709 L153.113209,35.1177812 L160.047648,35.1177812 L155.800466,21.8098124 Z M138.483569,6.37312215 L130.4131,25.2050915 L136.60519,25.2050915 L136.60519,47.6131251 L143.376104,47.6131251 L143.376104,17.8895996 L140.921749,17.8895996 L146.020789,6.37362714 L138.483569,6.37312215 Z M216.998601,46.5852244 L214.525478,38.3440916 C214.359354,37.8181226 213.877048,37.437514 213.303667,37.437514 L206.747142,37.437514 L208.649528,43.7677766 L200.940697,43.7677766 L200.940697,31.5039186 L216.076832,31.5039186 L216.076832,28.5858521 L200.940697,28.5858521 L200.940697,22.8133475 L216.076832,22.8133475 L216.076832,19.8952811 L178.305794,19.8952811 L178.305794,22.8133475 L193.439133,22.8133475 L193.439133,28.5858521 L178.305794,28.5858521 L178.305794,31.5039186 L193.439133,31.5039186 L193.439133,43.7677766 L178.305794,43.7677766 L178.305794,46.685843 L217,46.685843 L216.967847,46.5854062 L216.998601,46.5852244 Z M186.175481,12.9329012 L208.219098,12.9329012 L208.219098,17.2384822 L216.093999,17.2384822 L216.093999,12.1372945 C216.091328,12.1267226 216.091328,12.1214354 216.091328,12.1082198 C216.091328,10.961117 215.180317,10.0334057 214.052272,10.0148979 L201.308997,10.0148979 L201.308997,6 L193.069662,6 L193.069662,10.0148979 L178.303302,10.0148979 L178.303302,17.2384822 L186.175405,17.2384822 L186.175481,12.9329012 Z" id="形状" fill="#3F3B3A"></path>
            </g>
        </g>
    </g>
</svg>