<?xml version="1.0" encoding="UTF-8"?>
<svg width="95px" height="95px" viewBox="0 0 95 95" version="1.1" xmlns="http://www.w3.org/2000/svg" xmlns:xlink="http://www.w3.org/1999/xlink">
    <!-- Generator: Sketch 56.2 (81672) - https://sketch.com -->
    <title>American_Express</title>
    <desc>Created with Sketch.</desc>
    <g id="页面1" stroke="none" stroke-width="1" fill="none" fill-rule="evenodd">
        <g id="logo-svg" transform="translate(-2118.000000, -1666.000000)" fill-rule="nonzero">
            <g id="American_Express" transform="translate(2118.000000, 1666.000000)">
                <path d="M95,51.4142539 L95,0 L0,0 L0,95 L95,95 L95,67.2828508 C94.7884187,67.2828508 95,51.4142539 95,51.4142539" id="路径" fill="#006FCF"></path>
                <path d="M83.363029,45.6540541 L90.5567929,45.6540541 L90.5567929,29 L82.7282851,29 L82.7282851,31.3189189 L81.247216,29 L74.4766147,29 L74.4766147,31.9513514 L73.2071269,29 L60.7238307,29 C60.3006682,29 59.8775056,29.2108108 59.454343,29.2108108 C59.0311804,29.2108108 58.8195991,29.4216216 58.3964365,29.6324324 C57.9732739,29.8432432 57.7616927,29.8432432 57.3385301,30.0540541 L57.3385301,29 L21.5812918,29 L20.5233853,31.7405405 L19.4654788,29 L11.0022272,29 L11.0022272,31.9513514 L9.73273942,29 L2.96213808,29 L0,36.1675676 L0,45.6540541 L4.86636971,45.6540541 L5.71269488,43.3351351 L7.40534521,43.3351351 L8.25167038,45.6540541 L45.4899777,45.6540541 L45.4899777,43.5459459 L46.9710468,45.6540541 L57.3385301,45.6540541 L57.3385301,44.3891892 C57.5501114,44.6 57.9732739,44.6 58.1848552,44.8108108 C58.3964365,45.0216216 58.8195991,45.0216216 59.0311804,45.2324324 C59.454343,45.4432432 59.8775056,45.4432432 60.3006682,45.4432432 L67.9175947,45.4432432 L68.7639198,43.1243243 L70.4565702,43.1243243 L71.3028953,45.4432432 L81.6703786,45.4432432 L81.6703786,43.3351351 L83.363029,45.6540541 L83.363029,45.6540541 Z M95,66.7351351 L95,51.1351351 L36.8151448,51.1351351 L35.3340757,53.2432432 L33.8530067,51.1351351 L16.9265033,51.1351351 L16.9265033,67.7891892 L33.8530067,67.7891892 L35.3340757,65.6810811 L36.8151448,67.7891892 L47.3942094,67.7891892 L47.3942094,64.2054054 L46.9710468,64.2054054 C48.4521158,64.2054054 49.7216036,63.9945946 50.77951,63.572973 L50.77951,68 L58.3964365,68 L58.3964365,65.8918919 L59.8775056,68 L91.403118,68 C92.6726058,67.5783784 93.9420935,67.3675676 95,66.7351351 L95,66.7351351 Z" id="形状" fill="#FFFFFF"></path>
                <path d="M91.403118,62.7025316 L85.6904232,62.7025316 L85.6904232,65 L91.1915367,65 C93.518931,65 95,63.5379747 95,61.4493671 C95,59.3607595 93.7305122,58.3164557 91.6146993,58.3164557 L89.0757238,58.3164557 C88.44098,58.3164557 88.0178174,57.8987342 88.0178174,57.2721519 C88.0178174,56.6455696 88.44098,56.2278481 89.0757238,56.2278481 L93.9420935,56.2278481 L95,53.9303797 L89.2873051,53.9303797 C86.9599109,53.9303797 85.4788419,55.3924051 85.4788419,57.2721519 C85.4788419,59.3607595 86.7483296,60.4050633 88.8641425,60.4050633 L91.403118,60.4050633 C92.0378619,60.4050633 92.4610245,60.8227848 92.4610245,61.4493671 C92.6726058,62.2848101 92.2494432,62.7025316 91.403118,62.7025316 L91.403118,62.7025316 Z M81.0356347,62.7025316 L75.3229399,62.7025316 L75.3229399,65 L80.8240535,65 C83.1514477,65 84.6325167,63.5379747 84.6325167,61.4493671 C84.6325167,59.3607595 83.363029,58.3164557 81.247216,58.3164557 L78.7082405,58.3164557 C78.0734967,58.3164557 77.6503341,57.8987342 77.6503341,57.2721519 C77.6503341,56.6455696 78.0734967,56.2278481 78.7082405,56.2278481 L83.5746102,56.2278481 L84.6325167,53.9303797 L78.9198218,53.9303797 C76.5924276,53.9303797 75.1113586,55.3924051 75.1113586,57.2721519 C75.1113586,59.3607595 76.3808463,60.4050633 78.4966592,60.4050633 L81.0356347,60.4050633 C81.6703786,60.4050633 82.0935412,60.8227848 82.0935412,61.4493671 C82.3051225,62.2848101 81.6703786,62.7025316 81.0356347,62.7025316 L81.0356347,62.7025316 Z M73.6302895,56.0189873 L73.6302895,53.721519 L64.7438753,53.721519 L64.7438753,64.7911392 L73.6302895,64.7911392 L73.6302895,62.4936709 L67.2828508,62.4936709 L67.2828508,60.1962025 L73.4187082,60.1962025 L73.4187082,57.8987342 L67.2828508,57.8987342 L67.2828508,55.8101266 L73.6302895,55.8101266 L73.6302895,56.0189873 L73.6302895,56.0189873 Z M59.2427617,56.0189873 C60.3006682,56.0189873 60.7238307,56.6455696 60.7238307,57.2721519 C60.7238307,57.8987342 60.3006682,58.5253165 59.2427617,58.5253165 L56.0690423,58.5253165 L56.0690423,55.8101266 L59.2427617,56.0189873 L59.2427617,56.0189873 Z M56.0690423,60.8227848 L57.3385301,60.8227848 L60.7238307,64.7911392 L63.8975501,64.7911392 L60.0890869,60.6139241 C61.9933185,60.1962025 63.0512249,58.943038 63.0512249,57.2721519 C63.0512249,55.1835443 61.5701559,53.721519 59.2427617,53.721519 L53.3184855,53.721519 L53.3184855,64.7911392 L55.857461,64.7911392 L56.0690423,60.8227848 Z M49.298441,57.4810127 C49.298441,58.3164557 48.8752784,58.943038 47.8173719,58.943038 L44.4320713,58.943038 L44.4320713,56.0189873 L47.6057906,56.0189873 C48.6636971,56.0189873 49.298441,56.6455696 49.298441,57.4810127 L49.298441,57.4810127 Z M41.8930958,53.721519 L41.8930958,64.7911392 L44.4320713,64.7911392 L44.4320713,61.0316456 L47.8173719,61.0316456 C50.1447661,61.0316456 51.8374165,59.5696203 51.8374165,57.2721519 C51.8374165,55.1835443 50.3563474,53.5126582 48.0289532,53.5126582 L41.8930958,53.721519 L41.8930958,53.721519 Z M38.0846325,64.7911392 L41.2583519,64.7911392 L36.8151448,59.1518987 L41.2583519,53.721519 L38.0846325,53.721519 L35.3340757,57.2721519 L32.5835189,53.721519 L29.4097996,53.721519 L33.8530067,59.1518987 L29.4097996,64.5822785 L32.5835189,64.5822785 L35.3340757,61.0316456 L38.0846325,64.7911392 L38.0846325,64.7911392 Z M28.5634744,56.0189873 L28.5634744,53.721519 L19.6770601,53.721519 L19.6770601,64.7911392 L28.5634744,64.7911392 L28.5634744,62.4936709 L22.2160356,62.4936709 L22.2160356,60.1962025 L28.3518931,60.1962025 L28.3518931,57.8987342 L22.2160356,57.8987342 L22.2160356,55.8101266 L28.5634744,55.8101266 L28.5634744,56.0189873 L28.5634744,56.0189873 Z M79.9777283,36.3860759 L84.4209354,43.0696203 L87.5946548,43.0696203 L87.5946548,32 L85.0556793,32 L85.0556793,39.3101266 L84.4209354,38.2658228 L80.4008909,32 L77.0155902,32 L77.0155902,43.0696203 L79.5545657,43.0696203 L79.5545657,35.5506329 L79.9777283,36.3860759 L79.9777283,36.3860759 Z M68.9755011,36.1772152 L69.8218263,33.8797468 L70.6681514,36.1772152 L71.7260579,38.6835443 L67.9175947,38.6835443 L68.9755011,36.1772152 Z M73.4187082,43.0696203 L76.169265,43.0696203 L71.3028953,32 L67.9175947,32 L63.0512249,43.0696203 L65.8017817,43.0696203 L66.8596882,40.7721519 L72.3608018,40.7721519 L73.4187082,43.0696203 Z M61.5701559,43.0696203 L62.6280624,40.7721519 L61.9933185,40.7721519 C60.0890869,40.7721519 59.0311804,39.5189873 59.0311804,37.6392405 L59.0311804,37.4303797 C59.0311804,35.5506329 60.0890869,34.2974684 61.9933185,34.2974684 L64.7438753,34.2974684 L64.7438753,32 L61.7817372,32 C58.3964365,32 56.4922049,34.2974684 56.4922049,37.4303797 L56.4922049,37.6392405 C56.4922049,40.9810127 58.3964365,43.0696203 61.5701559,43.0696203 Z M52.0489978,43.0696203 L54.5879733,43.0696203 L54.5879733,32.2088608 L52.0489978,32.2088608 L52.0489978,43.0696203 Z M46.5478842,34.2974684 C47.6057906,34.2974684 48.0289532,34.9240506 48.0289532,35.5506329 C48.0289532,36.1772152 47.6057906,36.8037975 46.5478842,36.8037975 L43.3741648,36.8037975 L43.3741648,34.0886076 L46.5478842,34.2974684 L46.5478842,34.2974684 Z M43.3741648,39.1012658 L44.6436526,39.1012658 L48.0289532,43.0696203 L51.2026726,43.0696203 L47.3942094,38.8924051 C49.298441,38.4746835 50.3563474,37.221519 50.3563474,35.5506329 C50.3563474,33.4620253 48.8752784,32 46.5478842,32 L40.623608,32 L40.623608,43.0696203 L43.1625835,43.0696203 L43.3741648,39.1012658 Z M38.7193764,34.2974684 L38.7193764,32 L29.8329621,32 L29.8329621,43.0696203 L38.7193764,43.0696203 L38.7193764,40.7721519 L32.3719376,40.7721519 L32.3719376,38.4746835 L38.5077951,38.4746835 L38.5077951,36.1772152 L32.3719376,36.1772152 L32.3719376,34.0886076 L38.7193764,34.0886076 L38.7193764,34.2974684 L38.7193764,34.2974684 Z M19.4654788,43.0696203 L21.7928731,43.0696203 L24.9665924,34.0886076 L24.9665924,43.0696203 L27.5055679,43.0696203 L27.5055679,32 L23.2739421,32 L20.7349666,39.5189873 L18.1959911,32 L13.9643653,32 L13.9643653,43.0696203 L16.5033408,43.0696203 L16.5033408,34.0886076 L19.4654788,43.0696203 Z M5.71269488,36.1772152 L6.55902004,33.8797468 L7.40534521,36.1772152 L8.46325167,38.6835443 L4.65478842,38.6835443 L5.71269488,36.1772152 L5.71269488,36.1772152 Z M10.155902,43.0696203 L12.9064588,43.0696203 L8.04008909,32 L4.86636971,32 L0,43.0696203 L2.75055679,43.0696203 L3.80846325,40.7721519 L9.30957684,40.7721519 L10.155902,43.0696203 Z" id="形状" fill="#006FCF"></path>
            </g>
        </g>
    </g>
</svg>