<?xml version="1.0" encoding="UTF-8"?>
<svg width="217px" height="62px" viewBox="0 0 217 62" version="1.1" xmlns="http://www.w3.org/2000/svg" xmlns:xlink="http://www.w3.org/1999/xlink">
    <!-- Generator: Sketch 56.2 (81672) - https://sketch.com -->
    <title>dharai</title>
    <desc>Created with Sketch.</desc>
    <defs>
        <polygon id="path-1" points="7.75e-05 0 62.0000775 0 62.0000775 61.9997675 7.75e-05 61.9997675"></polygon>
    </defs>
    <g id="页面1" stroke="none" stroke-width="1" fill="none" fill-rule="evenodd">
        <g id="logo-svg" transform="translate(-2403.000000, -1682.000000)">
            <g id="dharai" transform="translate(2403.000000, 1682.000000)">
                <g id="编组">
                    <mask id="mask-2" fill="white">
                        <use xlink:href="#path-1"></use>
                    </mask>
                    <g id="Clip-2"></g>
                    <path d="M62.0000775,48.4760175 C61.9830275,55.9322925 55.9473275,61.9741925 48.4918275,61.9997675 L13.5160775,61.9997675 C6.0590275,61.9741925 0.0210025,55.9330675 7.75e-05,48.4760175 L7.75e-05,13.5157675 C0.0210025,6.0602675 6.0598025,0.0214675 13.5160775,-0.0002325 L48.4918275,-0.0002325 C55.9450025,0.0253425 61.9791525,6.0633675 62.0000775,13.5157675 L62.0000775,48.4760175 Z" id="Fill-1" fill="#BE1733" mask="url(#mask-2)"></path>
                </g>
                <path d="M9.73228346,27.3457233 C9.65354331,25.6456316 11.023622,24.206685 12.7913386,24.1309908 C12.8582677,24.12872 12.9251969,24.127963 12.992126,24.12872 C14.7307087,24.0651368 16.1929134,25.367834 16.2598425,27.0391618 C16.2622047,27.1133421 16.2622047,27.1882794 16.2598425,27.2624597 L16.2598425,27.4289869 C16.3173228,29.1003147 14.9551181,30.4999004 13.2165354,30.5559141 C13.1417323,30.5581849 13.0669291,30.5581849 12.992126,30.5551572 C11.2228346,30.5861918 9.76220472,29.2320226 9.72992126,27.5304171 C9.72913386,27.4691048 9.72992126,27.4077925 9.73228346,27.3457233 M16.2125984,15 L16.2125984,21.5248396 C15.207874,20.9752998 14.0692913,20.6937174 12.9133858,20.7073423 C9.09527559,20.7073423 6,23.6828812 6,27.3532927 C6,31.0237042 9.09527559,34 12.9133858,34 C16.3464567,34 17.6377953,32.4020955 20,31.3499462 L20,15 L16.2125984,15" id="Fill-3" fill="#FFFFFF"></path>
                <path d="M37.0290873,33 C36.8410231,32.3008603 36.6604814,31.6411943 36.4799398,31.0407389 C34.0644433,31.79833 31.5872618,32.3365385 29.0777332,32.6500506 L28.6263791,30.5017713 C29.0100301,30.5017713 29.4914744,30.388664 29.7622869,30.3499494 C31.0629388,26.3464069 32.0687061,22.2517713 32.7713139,18.0986842 L34.9679037,18.4630567 C34.2156469,22.5690789 33.2452357,26.2659413 32.161986,29.9703947 C33.4107322,29.7654352 34.640672,29.457996 35.8405216,29.0518725 C35.4643932,27.8911943 34.997994,26.8200911 34.5015045,25.6358806 L36.2617854,24.6953441 C37.3412738,27.0538968 38.2560181,29.4868421 39,31.9744433 L37.0290873,33 Z M24.6469408,30.7682186 L24.8274824,30.7682186 C26.505015,30.7682186 26.5426279,30.7682186 26.5426279,29.8868927 L26.5426279,27.6095648 C25.9107322,27.7925101 25.1584754,27.9822874 24.4513541,28.1485324 L24,26.0845142 C24.8951856,25.916751 25.775326,25.6897773 26.5426279,25.4696356 L26.5426279,22.5842611 L24.4137412,22.5842611 L24.4137412,20.5809717 L26.5426279,20.5809717 L26.5426279,18 L28.5135406,18 L28.5135406,20.5809717 L30.38666,20.5809717 L30.38666,22.5842611 L28.5135406,22.5842611 L28.5135406,24.8615891 C29.4087262,24.520749 30.055667,24.2239372 30.3565697,24.1024798 L30.3565697,26.076164 C29.7570211,26.3866397 29.141675,26.6652328 28.5135406,26.9111842 L28.5135406,30.0091093 C28.5135406,32.2864372 28.3931795,32.8102227 25.444333,32.8929656 L24.6469408,30.7682186 Z" id="Fill-5" fill="#FFFFFF"></path>
                <path d="M52.6808393,30.5421965 C52.6808393,26.3190751 52.186085,23.0277457 49.7123136,19.4057803 L52.286582,19.4057803 C53.9718388,22.0283237 55,25.2445087 55,30.5421965 L52.6808393,30.5421965 Z M48.6377692,30.6248555 C47.5748205,31.425896 46.2915516,31.9045665 44.9503037,32 C42.7161789,32 41,30.2416185 41,25.3421965 C41.0278299,23.2133526 41.2504694,21.0905202 41.6648261,19 L43.9839867,19 C43.511651,21.1596532 43.2650469,23.3598844 43.2495859,25.5676301 C43.2495859,28.1676301 43.929873,29.7606936 45.2440641,29.7606936 C46.4345665,29.7606936 47.7332965,28.7537572 48.6377692,28.017341 L48.6377692,30.6248555 Z" id="Fill-7" fill="#FFFFFF"></path>
                <path d="M21,45.4995931 C21,47.9858034 18.9851718,50 16.5,50 C14.0148282,50 12,47.9858034 12,45.4995931 C12,43.0141966 14.0148282,41 16.5,41 C18.9835443,41.0040691 20.9959313,43.0158242 21,45.4995931" id="Fill-9" fill="#E4DB63"></path>
                <path d="M35,45.4910619 C35.0040552,47.9774321 32.9928666,49.9951202 30.5081227,50 C28.0225666,50.0040552 26.0040675,47.9928653 26,45.5081197 C25.9959448,43.0225618 28.0063211,41.0040614 30.4918773,41 L30.5081227,41 C32.9863684,41.0040614 34.9951202,43.0120022 35,45.4910619" id="Fill-11" fill="#E4DB63"></path>
                <path d="M49,45.4910619 C49.0048648,47.9774321 46.9936768,49.9951202 44.5081214,50 C42.0233782,50.0040552 40.0048798,47.9928653 40,45.5081197 C39.9959448,43.0225618 42.0071328,41.0040614 44.4918759,41 L44.5081214,41 C46.9871786,41.0040614 48.9959298,43.0120022 49,45.4910619" id="Fill-13" fill="#E4DB63"></path>
                <path d="M87.7943925,39.4233333 C87.7943925,34.6555556 91.0342679,29.9577778 97.0389408,29.9577778 C103.043614,29.9577778 106.213396,34.4525556 106.32243,39.1744444 L106.32243,39.6714444 C106.213396,44.3933333 103.074766,48.8811111 97.0389408,48.8811111 C91.0031153,48.8811111 87.7943925,44.2144444 87.7943925,39.4233333 M106.190031,3.01555556 L106.190031,22.2422222 C103.345794,20.6197778 100.119938,19.7844444 96.8442368,19.8233333 C83.8847352,19.8233333 77,29.9344444 77,39.4311111 C77,48.9277778 83.8847352,59 96.8442368,59 C106.587227,59 110.224299,54.3333333 117,51.2222222 L117,3 L106.190031,3" id="Fill-15" fill="#040000"></path>
                <path d="M166.245798,57 C165.706583,54.9379845 165.1743,53.0232558 164.635084,51.255814 C159.466317,52.9837209 153.326961,54.3488372 142.890056,55.8992248 L141.572829,49.6124031 C142.697479,49.5193798 144.114846,49.2705426 144.892087,49.1782946 C148.708964,37.4418605 151.657703,25.4372093 153.712115,13.2635659 L160.152661,14.3410853 C157.841737,26.3635659 155.084034,37.2093023 151.910364,48.0465116 C155.584734,47.4449612 159.203641,46.5426357 162.732423,45.3488372 C161.607773,41.9612403 160.245098,38.8217054 158.788445,35.3410853 L163.95028,32.5968992 C167.129342,39.5186047 169.820028,46.6573643 172,53.9612403 L166.245798,57 Z M129.879552,50.4728682 L130.410294,50.4728682 C135.332563,50.4728682 135.433473,50.4186047 135.433473,47.8682171 L135.433473,41.2550388 C133.584734,41.7984496 131.389356,42.3410853 129.271008,42.8054264 L128,36.7976744 C130.634454,36.3023256 133.214216,35.620155 135.455812,34.9767442 L135.455812,26.4418605 L129.217087,26.4418605 L129.217087,20.5496124 L135.455812,20.5496124 L135.455812,13 L141.257003,13 L141.257003,20.5496124 L146.64916,20.5496124 L146.64916,26.4418605 L141.257003,26.4418605 L141.257003,33.0224806 C143.890686,32.0465116 145.793347,31.1627907 146.64916,30.7674419 L146.64916,36.7046512 C144.893627,37.6124031 143.094188,38.4302326 141.257003,39.1542636 L141.257003,48.2317829 C141.257003,54.9457364 140.917297,56.4186047 132.243627,56.6658915 L129.879552,50.4728682 Z" id="Fill-17" fill="#040000"></path>
                <path d="M210.365403,50.7214633 C210.365403,38.3535786 208.957668,28.7920458 201.89898,18.1110394 L209.250144,18.1110394 C214.075236,25.7786679 217,35.1945156 217,50.7214633 L210.365403,50.7214633 Z M198.820281,50.9668274 C197.066192,52.2779919 192.732923,55 188.298826,55 C181.918222,55 177,49.8550213 177,35.4943199 C177.088513,29.2850744 177.724264,23.0965314 178.901097,17 L185.52107,17 C184.177218,23.3211929 183.475274,29.7612341 183.426785,36.2227446 C183.426785,43.8290321 185.374062,48.4909502 189.122378,48.4909502 C192.540504,48.4909502 196.24187,45.5304788 198.820281,43.3988781 L198.820281,50.9668274 Z" id="Fill-19" fill="#040000"></path>
            </g>
        </g>
    </g>
</svg>