<?xml version="1.0" encoding="UTF-8"?>
<svg width="21px" height="13px" viewBox="0 0 21 13" version="1.1" xmlns="http://www.w3.org/2000/svg" xmlns:xlink="http://www.w3.org/1999/xlink">
    <!-- Generator: Sketch 63.1 (92452) - https://sketch.com -->
    <title>Discover-Card-01</title>
    <desc>Created with Sketch.</desc>
    <defs>
        <linearGradient x1="75.5551195%" y1="90.0119454%" x2="40.9921502%" y2="35.8964164%" id="linearGradient-1">
            <stop stop-color="#F89F20" offset="0%"></stop>
            <stop stop-color="#F79A20" offset="25.02%"></stop>
            <stop stop-color="#F68D20" offset="53.31%"></stop>
            <stop stop-color="#F58720" offset="61.96%"></stop>
            <stop stop-color="#F48120" offset="72.32%"></stop>
            <stop stop-color="#F37521" offset="100%"></stop>
        </linearGradient>
        <linearGradient x1="70.0984642%" y1="89.2836177%" x2="19.5836177%" y2="-9.45051195%" id="linearGradient-2">
            <stop stop-color="#F58720" offset="0%"></stop>
            <stop stop-color="#E16F27" offset="35.87%"></stop>
            <stop stop-color="#D4602C" offset="70.3%"></stop>
            <stop stop-color="#D05B2E" offset="98.16%"></stop>
        </linearGradient>
    </defs>
    <g id="UI页面" stroke="none" stroke-width="1" fill="none" fill-rule="evenodd">
        <g id="手动输入金额-确认支付方式备份" transform="translate(-183.000000, -653.000000)" fill-rule="nonzero">
            <g id="Discover-Card-01" transform="translate(183.000000, 653.000000)">
                <polygon id="XMLID_428_" fill="#FFFFFF" points="0.0684424342 0.10003125 19.9325428 0.10003125 19.9325428 12.7460872 0.0737072368 12.7460872"></polygon>
                <path d="M19.8641003,7.13380757 C19.8641003,7.13380757 14.4360888,10.9613191 4.49614145,12.6776447 L19.8641003,12.6776447 L19.8641003,7.13380757 Z" id="XMLID_427_" fill="#F48120"></path>
                <path d="M19.9325428,0.0263240132 L0,0.0263240132 L0,12.8197944 L20.00625,12.8197944 L20.00625,0.0210592105 L19.9325428,0.0210592105 L19.9325428,0.0263240132 Z M19.8641003,0.168473684 C19.8641003,0.310623355 19.8641003,12.5302303 19.8641003,12.6723799 C19.7219507,12.6723799 0.289564145,12.6723799 0.147414474,12.6723799 C0.147414474,12.5302303 0.147414474,0.310623355 0.147414474,0.168473684 C0.289564145,0.168473684 19.7166859,0.168473684 19.8641003,0.168473684 Z" id="XMLID_2_" fill="#231F20"></path>
                <path d="M1.74791447,3.93807237 L0.921340461,3.93807237 L0.921340461,6.83371382 L1.74791447,6.83371382 C2.18489309,6.83371382 2.50078125,6.72841776 2.77981579,6.50203125 C3.11149836,6.22826151 3.30629605,5.81760691 3.30629605,5.39115789 C3.30103125,4.53299507 2.66399013,3.93807237 1.74791447,3.93807237 Z M2.41127961,6.11770066 C2.23227632,6.27564474 2.0058898,6.34935197 1.63735362,6.34935197 L1.48467434,6.34935197 L1.48467434,4.43296382 L1.63735362,4.43296382 C2.000625,4.43296382 2.22174671,4.49614145 2.41127961,4.66461513 C2.6060773,4.83835362 2.72190296,5.10685855 2.72190296,5.38589309 C2.72190296,5.66492763 2.6060773,5.94396217 2.41127961,6.11770066 Z" id="形状" fill="#231F20"></path>
                <rect id="XMLID_422_" fill="#231F20" x="3.56427138" y="3.93807237" width="1" height="2.89564145"></rect>
                <path d="M5.50698355,5.04894572 C5.17003618,4.92259046 5.07000493,4.83835362 5.07000493,4.68567434 C5.07000493,4.50140625 5.24900822,4.36452138 5.49118914,4.36452138 C5.65966283,4.36452138 5.8018125,4.43296382 5.94396217,4.6014375 L6.23879112,4.21710691 C5.9966102,4.0065148 5.70704605,3.89595395 5.38589309,3.89595395 C4.87520724,3.89595395 4.48034704,4.25396053 4.48034704,4.72779276 C4.48034704,5.12791776 4.66461513,5.33324507 5.19109539,5.52277796 C5.41221711,5.60175 5.52277796,5.65439803 5.58069079,5.68598684 C5.69125164,5.75969408 5.74916447,5.86499013 5.74916447,5.98608059 C5.74916447,6.22299671 5.56489638,6.3967352 5.31218586,6.3967352 C5.04368092,6.3967352 4.82782401,6.25985033 4.69620395,6.01240461 L4.33293257,6.36514638 C4.59090789,6.74947697 4.90679605,6.91795066 5.33324507,6.91795066 C5.91763816,6.91795066 6.33355757,6.52835526 6.33355757,5.96502138 C6.34408717,5.49645395 6.14928947,5.28586184 5.50698355,5.04894572 Z" id="XMLID_421_" fill="#231F20"></path>
                <path d="M6.51782566,5.39115789 C6.51782566,6.24405592 7.18645559,6.90215625 8.04461842,6.90215625 C8.28679934,6.90215625 8.49739145,6.85477303 8.75010197,6.73368257 L8.75010197,6.07031743 C8.52371546,6.29670395 8.32365296,6.38620559 8.07094243,6.38620559 C7.50234375,6.38620559 7.09695395,5.97555099 7.09695395,5.38589309 C7.09695395,4.82782401 7.51287336,4.39084539 8.04461842,4.39084539 C8.31312336,4.39084539 8.51845066,4.48561184 8.75010197,4.71726316 L8.75010197,4.05389803 C8.50265625,3.92754276 8.29732895,3.87489474 8.05514803,3.87489474 C7.2075148,3.87489474 6.51782566,4.54878947 6.51782566,5.39115789 Z" id="XMLID_420_" fill="#231F20"></path>
                <polygon id="XMLID_419_" fill="#231F20" points="13.2357138 5.88604934 12.4617878 3.93807237 11.8458059 3.93807237 13.0725049 6.90742105 13.3778635 6.90742105 14.6256217 3.93807237 14.0149046 3.93807237"></polygon>
                <polygon id="XMLID_418_" fill="#231F20" points="14.883597 6.83371382 16.484097 6.83371382 16.484097 6.34408717 15.4469309 6.34408717 15.4469309 5.56489638 16.4472434 5.56489638 16.4472434 5.07526974 15.4469309 5.07526974 15.4469309 4.43296382 16.484097 4.43296382 16.484097 3.93807237 14.883597 3.93807237"></polygon>
                <path d="M18.7216382,4.7962352 C18.7216382,4.25396053 18.3478372,3.94333717 17.6950016,3.94333717 L16.857898,3.94333717 L16.857898,6.83897862 L17.4212319,6.83897862 L17.4212319,5.67545724 L17.4949391,5.67545724 L18.2741299,6.83897862 L18.9690839,6.83897862 L18.058273,5.61754441 C18.484722,5.52804276 18.7216382,5.23847862 18.7216382,4.7962352 Z M17.5844408,5.27533224 L17.4212319,5.27533224 L17.4212319,4.3961102 L17.5949704,4.3961102 C17.9477122,4.3961102 18.1372451,4.54352467 18.1372451,4.82782401 C18.1372451,5.11738816 17.9477122,5.27533224 17.5844408,5.27533224 Z" id="形状" fill="#231F20"></path>
                <circle id="XMLID_415_" fill="url(#linearGradient-1)" cx="10.482222" cy="5.3964227" r="1.54258717"></circle>
                <circle id="XMLID_414_" fill="url(#linearGradient-2)" opacity="0.65" cx="10.482222" cy="5.3964227" r="1.54258717"></circle>
                <g id="XMLID_436_" transform="translate(18.742697, 3.843306)" fill="#231F20">
                    <path d="M0.336947368,0.205327303 C0.336947368,0.152679276 0.30009375,0.126355263 0.242180921,0.126355263 L0.157944079,0.126355263 L0.157944079,0.379065789 L0.221121711,0.379065789 L0.221121711,0.279034539 L0.294828947,0.379065789 L0.368536184,0.379065789 L0.284299342,0.273769737 C0.315888158,0.268504934 0.336947368,0.242180921 0.336947368,0.205327303 Z M0.240521711,0.280438487 L0.221121711,0.280438487 L0.221121711,0.173738487 L0.240521711,0.173738487 C0.298721711,0.173738487 0.327821711,0.190153871 0.327821711,0.222984641 C0.327821711,0.264023102 0.298721711,0.280438487 0.240521711,0.280438487 Z" id="形状"></path>
                    <path d="M0.252710526,0.0315888158 C0.131620066,0.0315888158 0.0315888158,0.131620066 0.0315888158,0.252710526 C0.0315888158,0.373800987 0.131620066,0.473832237 0.252710526,0.473832237 C0.373800987,0.473832237 0.473832237,0.373800987 0.473832237,0.252710526 C0.473832237,0.131620066 0.373800987,0.0315888158 0.252710526,0.0315888158 Z M0.252710526,0.436978618 C0.157944079,0.436978618 0.0737072368,0.358006579 0.0737072368,0.252710526 C0.0737072368,0.152679276 0.152679276,0.0684424342 0.252710526,0.0684424342 C0.347476974,0.0684424342 0.426449013,0.152679276 0.426449013,0.252710526 C0.426449013,0.352741776 0.347476974,0.436978618 0.252710526,0.436978618 Z" id="形状"></path>
                </g>
            </g>
        </g>
    </g>
</svg>