<?xml version="1.0" encoding="UTF-8"?>
<svg width="128px" height="98px" viewBox="0 0 128 98" version="1.1" xmlns="http://www.w3.org/2000/svg" xmlns:xlink="http://www.w3.org/1999/xlink">
    <!-- Generator: Sketch 56.2 (81672) - https://sketch.com -->
    <title>JCB</title>
    <desc>Created with Sketch.</desc>
    <defs>
        <linearGradient x1="-57.5270968%" y1="50.1241953%" x2="232.39121%" y2="50.1241953%" id="linearGradient-1">
            <stop stop-color="#007940" offset="0%"></stop>
            <stop stop-color="#00873F" offset="22.85%"></stop>
            <stop stop-color="#40A737" offset="74.33%"></stop>
            <stop stop-color="#5CB531" offset="100%"></stop>
        </linearGradient>
        <linearGradient x1="0.182516704%" y1="49.95997%" x2="100.273441%" y2="49.95997%" id="linearGradient-2">
            <stop stop-color="#007940" offset="0%"></stop>
            <stop stop-color="#00873F" offset="22.85%"></stop>
            <stop stop-color="#40A737" offset="74.33%"></stop>
            <stop stop-color="#5CB531" offset="100%"></stop>
        </linearGradient>
        <linearGradient x1="-62.8015845%" y1="49.8578253%" x2="253.671294%" y2="49.8578253%" id="linearGradient-3">
            <stop stop-color="#007940" offset="0%"></stop>
            <stop stop-color="#00873F" offset="22.85%"></stop>
            <stop stop-color="#40A737" offset="74.33%"></stop>
            <stop stop-color="#5CB531" offset="100%"></stop>
        </linearGradient>
        <linearGradient x1="0.175556793%" y1="50.0058048%" x2="101.808162%" y2="50.0058048%" id="linearGradient-4">
            <stop stop-color="#1F286F" offset="0%"></stop>
            <stop stop-color="#004E94" offset="47.51%"></stop>
            <stop stop-color="#0066B1" offset="82.61%"></stop>
            <stop stop-color="#006FBC" offset="100%"></stop>
        </linearGradient>
        <linearGradient x1="-0.575855512%" y1="49.9142191%" x2="98.13299%" y2="49.9142191%" id="linearGradient-5">
            <stop stop-color="#6C2C2F" offset="0%"></stop>
            <stop stop-color="#882730" offset="17.35%"></stop>
            <stop stop-color="#BE1833" offset="57.31%"></stop>
            <stop stop-color="#DC0436" offset="85.85%"></stop>
            <stop stop-color="#E60039" offset="100%"></stop>
        </linearGradient>
    </defs>
    <g id="页面1" stroke="none" stroke-width="1" fill="none" fill-rule="evenodd">
        <g id="logo-svg" transform="translate(-3401.000000, -1485.000000)" fill-rule="nonzero">
            <g id="JCB" transform="translate(3401.000000, 1485.000000)">
                <path d="M127.486957,78.2444444 C127.486957,89.1333333 118.637323,98 107.769353,98 L0.486956522,98 L0.486956522,19.7555556 C0.486956522,8.86666667 9.33658977,0 20.2045604,0 L127.486957,0 L127.486957,78.2444444 Z" id="path6325" fill="#FFFFFF"></path>
                <g id="g6327" transform="translate(85.486957, 7.000000)">
                    <path d="M7,51.3863636 L15.1666667,51.3863636 C15.4,51.3863636 15.9444444,51.3090909 16.1777778,51.3090909 C17.7333333,51 19.0555556,49.6090909 19.0555556,47.6772727 C19.0555556,45.8227273 17.7333333,44.4318182 16.1777778,44.0454545 C15.9444444,43.9681818 15.4777778,43.9681818 15.1666667,43.9681818 L7,43.9681818 L7,51.3863636 Z" id="path6338" fill="url(#linearGradient-1)"></path>
                    <path d="M14.2333333,0.154545455 C6.45555556,0.154545455 0.0777777778,6.41363636 0.0777777778,14.2181818 L0.0777777778,28.8227273 L20.0666667,28.8227273 C20.5333333,28.8227273 21.0777778,28.8227273 21.4666667,28.9 C25.9777778,29.1318182 29.3222222,31.45 29.3222222,35.4681818 C29.3222222,38.6363636 27.0666667,41.3409091 22.8666667,41.8818182 L22.8666667,42.0363636 C27.4555556,42.3454545 30.9555556,44.8954545 30.9555556,48.8363636 C30.9555556,53.0863636 27.0666667,55.8681818 21.9333333,55.8681818 L2.58852978e-14,55.8681818 L2.58852978e-14,84.4590909 L20.7666667,84.4590909 C28.5444444,84.4590909 34.9222222,78.2 34.9222222,70.3954545 L34.9222222,0.154545455 L14.2333333,0.154545455 Z" id="path6349" fill="url(#linearGradient-2)"></path>
                    <path d="M18.0444444,36.3954545 C18.0444444,34.5409091 16.7222222,33.3045455 15.1666667,33.0727273 C15.0111111,33.0727273 14.6222222,32.9954545 14.3888889,32.9954545 L7,32.9954545 L7,39.7954545 L14.3888889,39.7954545 C14.6222222,39.7954545 15.0888889,39.7954545 15.1666667,39.7181818 C16.7222222,39.4863636 18.0444444,38.25 18.0444444,36.3954545 L18.0444444,36.3954545 Z" id="path6360" fill="url(#linearGradient-3)"></path>
                </g>
                <path d="M20.7519899,6 C12.9568897,6 6.56490752,12.3165138 6.56490752,20.1926606 L6.56490752,55.206422 C10.5404086,57.1559633 14.6718118,58.4036697 18.8032149,58.4036697 C23.714128,58.4036697 26.3644621,55.440367 26.3644621,51.3853211 L26.3644621,34.853211 L38.5248184,34.853211 L38.5248184,51.3073394 C38.5248184,57.7018349 34.5493173,62.9266055 21.0637939,62.9266055 C12.8789387,62.9266055 6.48695652,61.1330275 6.48695652,61.1330275 L6.48695652,91 L27.2998741,91 C35.0949743,91 41.4869565,84.6834862 41.4869565,76.8073394 L41.4869565,6 L20.7519899,6 Z" id="path6371" fill="url(#linearGradient-4)"></path>
                <path d="M60.6740389,6 C52.8789387,6 46.4869565,12.3049451 46.4869565,20.1666667 L46.4869565,38.6923077 C50.0727026,35.6565934 56.3087828,33.7106227 66.3644621,34.1776557 C71.7430812,34.4111722 77.5114554,35.8901099 77.5114554,35.8901099 L77.5114554,41.8836996 C74.6272683,40.4047619 71.1974242,39.0815018 66.7542171,38.7701465 C59.1150189,38.2252747 54.5159098,41.9615385 54.5159098,48.5 C54.5159098,55.1163004 59.1150189,58.8525641 66.7542171,58.2298535 C71.1974242,57.9184982 74.6272683,56.5173993 77.5114554,55.1163004 L77.5114554,61.1098901 C77.5114554,61.1098901 71.8210322,62.5888278 66.3644621,62.8223443 C56.3087828,63.2893773 50.0727026,61.3434066 46.4869565,58.3076923 L46.4869565,91 L67.2998741,91 C75.0949743,91 81.4869565,84.6950549 81.4869565,76.8333333 L81.4869565,6 L60.6740389,6 Z" id="path6384" fill="url(#linearGradient-5)"></path>
            </g>
        </g>
    </g>
</svg>