<?xml version="1.0" encoding="UTF-8"?>
<svg width="228px" height="67px" viewBox="0 0 228 67" version="1.1" xmlns="http://www.w3.org/2000/svg" xmlns:xlink="http://www.w3.org/1999/xlink">
    <!-- Generator: Sketch 56.2 (81672) - https://sketch.com -->
    <title>LINEPAY</title>
    <desc>Created with Sketch.</desc>
    <g id="页面1" stroke="none" stroke-width="1" fill="none" fill-rule="evenodd">
        <g id="logo-svg" transform="translate(-1705.000000, -1494.000000)" fill-rule="nonzero">
            <g id="LINEPAY" transform="translate(1705.000000, 1494.000000)">
                <rect id="矩形" fill="#000000" x="30" y="14" width="9" height="38" rx="2.65"></rect>
                <path d="M23.4653695,43.2791731 L8.58813991,43.2791731 L8.58813991,15.5583518 C8.58968635,15.1445748 8.42849917,14.7472917 8.14036421,14.454705 C7.85222925,14.1621184 7.46099081,13.9984409 7.05350938,14 L1.53463053,14 C0.687077492,14 0,14.6977041 0,15.5583518 L0,50.4416594 C0,51.3023071 0.687077492,52 1.53463053,52 L23.4653695,52 C24.3129225,52 25,51.3023071 25,50.4416594 L25,44.8375137 C25,43.976866 24.3129225,43.2791731 23.4653695,43.2791731 Z" id="路径" fill="#000000"></path>
                <path d="M105.465369,22.7208295 C106.306184,22.7208842 106.990481,22.0338806 107,21.18013 L107,15.5583411 C107,14.6976931 106.312923,14 105.465369,14 L83.5346305,14 C82.6870775,14 82,14.6976931 82,15.5583411 L82,50.4416589 C82,51.3023069 82.6870775,52 83.5346305,52 L105.465369,52 C106.312923,52 107,51.3023069 107,50.4416589 L107,44.8375116 C107,43.9768636 106.312923,43.2791705 105.465369,43.2791705 L90.5881399,43.2791705 L90.5881399,37.3574745 L105.465369,37.3574745 C106.312923,37.3574745 107,36.6597814 107,35.7991334 L107,30.1949861 C107,29.3343381 106.312923,28.636645 105.465369,28.636645 L90.5881399,28.636645 L90.5881399,22.7208295 L105.465369,22.7208295 Z" id="路径" fill="#000000"></path>
                <path d="M74.4687613,14.0083407 L68.9563019,14.0083407 C68.5507215,14.0083377 68.1618364,14.172671 67.8755904,14.4650227 C67.5893444,14.7573745 67.4293052,15.1536743 67.4308415,15.5663397 L67.4308415,35.7438969 L52.9851932,14.7726421 C52.5899621,14.23554 51.9487579,13.9460748 51.2921632,14.0083407 C51.2057052,13.999539 51.1185996,13.999539 51.0321416,14.0083407 L45.5312387,14.0083407 C44.6855589,14.0083407 44,14.7058806 44,15.5663397 L44,50.442001 C44,51.3024601 44.6855589,52 45.5312387,52 L51.0436981,52 C51.8893779,52 52.5749368,51.3024601 52.5749368,50.442001 L52.5749368,29.3649198 L67.598411,51.2298193 C67.6501046,51.3071412 67.7080911,51.3799078 67.7717588,51.4473513 C68.0380703,51.7703473 68.4216659,51.9697394 68.8349585,52 L74.4687613,52 C75.3144411,52 76,51.3024601 76,50.442001 L76,15.5663397 C76,15.1531327 75.8386735,14.7568495 75.5515106,14.4646681 C75.2643476,14.1724866 74.874871,14.0083407 74.4687613,14.0083407 Z" id="路径" fill="#000000"></path>
                <rect id="矩形" fill="#08BF5B" x="122" y="0" width="106" height="67" rx="6.62"></rect>
                <path d="M160,25.6301385 C159.994356,28.4860174 158.872056,31.2199513 156.885013,33.218281 C154.89797,35.2166106 152.212638,36.311937 149.431765,36.2584029 L144.90824,36.2584029 L144.90824,44.9547895 C144.90824,45.5320433 144.452495,46 143.890304,46 L139.017936,46 C138.455745,46 138,45.5320433 138,44.9547895 L138,16.0412126 C138.003146,15.4662532 138.457971,15.001865 139.017936,15.001874 L149.431765,15.001874 C152.212638,14.94834 154.89797,16.0436664 156.885013,18.041996 C158.872056,20.0403256 159.994356,22.7742595 160,25.6301385 L160,25.6301385 Z M153.097479,25.6301385 C153.150675,24.5955974 152.78883,23.5838378 152.096221,22.8305114 C151.403612,22.077185 150.440702,21.6480551 149.431765,21.6430713 L144.90824,21.6430713 L144.90824,29.6172056 L149.437484,29.6172056 C150.444897,29.6089501 151.405329,29.1786081 152.096335,28.4258511 C152.787341,27.673094 153.148975,26.6632246 153.097479,25.6301385 L153.097479,25.6301385 Z" id="形状" fill="#FFFFFF"></path>
                <path d="M185.999969,25.1549084 L185.999969,45.8508662 C185.999969,46.147461 185.753502,46.3878986 185.449507,46.3878986 L179.862346,46.3878986 C179.557379,46.3879154 179.309241,46.1483926 179.305997,45.8508662 L179.305997,44.3437108 C177.832265,45.9952297 175.6483,47 172.653486,47 C166.805906,47 162,41.9876977 162,35.5028873 C162,29.0180768 166.817743,24 172.653486,24 C175.6483,24 177.832265,25.0047703 179.305997,26.6620638 L179.305997,25.1549084 C179.305997,24.8551244 179.555083,24.6121014 179.862346,24.6121014 L185.449507,24.6121014 C185.596522,24.6120931 185.73743,24.6694652 185.840828,24.7714307 C185.944225,24.8733962 186.001518,25.0114806 185.999969,25.1549084 Z M179.305997,35.5028873 C179.305997,32.2344966 177.074683,30.1845343 173.979254,30.1845343 C170.883824,30.1845343 168.65251,32.2344966 168.65251,35.5028873 C168.65251,38.7712779 170.883824,40.8154657 173.979254,40.8154657 C177.074683,40.8154657 179.305997,38.7539543 179.305997,35.5028873 Z" id="形状" fill="#FFFFFF"></path>
                <path d="M208.080933,24.6041623 L203.085988,37.4323461 L197.906897,24.5982966 C197.776113,24.2470331 197.446829,24.0139487 197.078243,24.0117313 L191.536616,24.0117313 C191.357169,24.0112386 191.189424,24.1024507 191.089884,24.2546429 C190.990345,24.4068351 190.972261,24.5997486 191.041725,24.7684006 L199.673543,46.1839008 L196.537316,54.2491741 C196.469962,54.418164 196.489928,54.6102851 196.590521,54.7611411 C196.691114,54.9119971 196.85902,55.0016231 197.037961,55 L202.579588,55 C202.949264,54.9968828 203.279791,54.7645314 203.413997,54.4134124 L214.963368,24.7508036 C215.027702,24.5817932 215.006419,24.3913468 214.906442,24.2414146 C214.806465,24.0914825 214.640571,24.0012242 214.462723,24 L208.921096,24 C208.544961,24.0034764 208.210294,24.2441362 208.080933,24.6041623 L208.080933,24.6041623 Z" id="路径" fill="#FFFFFF"></path>
            </g>
        </g>
    </g>
</svg>