<svg xmlns="http://www.w3.org/2000/svg" viewBox="0 0 116.37 72.03"><defs><style>.cls-1{fill:#ff5f00;}.cls-2{fill:#eb001b;}.cls-3{fill:#f79e1b;}</style></defs><title> Group </title><g id="图层_2" data-name="图层 2"><g id="图层_1-2" data-name="图层 1"><g id="_Group_" data-name=" Group "><rect class="cls-1" x="42.37" y="7.71" width="31.5" height="56.6"/><path id="_Path_" data-name=" Path " class="cls-2" d="M44.37,36a36,36,0,0,1,13.8-28.3,36,36,0,1,0,.1,56.6A35.38,35.38,0,0,1,44.37,36Z"/><path class="cls-3" d="M116.37,36a36,36,0,0,1-58.2,28.3,36.06,36.06,0,0,0,6.1-50.5,35.21,35.21,0,0,0-6.1-6.1,36,36,0,0,1,50.6,6.1A36.36,36.36,0,0,1,116.37,36Z"/><path class="cls-3" d="M112.87,58.31v-1.2h.5v-.2h-1.2v.2h.5v1.2Zm2.3,0v-1.4h-.3l-.4,1-.4-1h-.4v1.4h.2v-1.1l.4.9h.3l.4-.9v1.1Z"/></g></g></g></svg>