<?xml version="1.0" encoding="UTF-8"?>
<svg width="126px" height="98px" viewBox="0 0 126 98" version="1.1" xmlns="http://www.w3.org/2000/svg" xmlns:xlink="http://www.w3.org/1999/xlink">
    <!-- Generator: Sketch 56.2 (81672) - https://sketch.com -->
    <title>MC</title>
    <desc>Created with Sketch.</desc>
    <g id="页面1" stroke="none" stroke-width="1" fill="none" fill-rule="evenodd">
        <g id="logo-svg" transform="translate(-1778.000000, -1664.000000)" fill-rule="nonzero">
            <g id="MC" transform="translate(1778.000000, 1664.000000)">
                <path d="M23.1313433,97.5288462 L23.1313433,91.0269231 C23.1313433,88.5769231 21.6268657,86.975 19.0880597,86.8807692 C17.7716418,86.8807692 16.4552239,87.2576923 15.5149254,88.6711538 C14.7626866,87.5403846 13.7283582,86.8807692 12.1298507,86.8807692 C11.0014925,86.8807692 9.96716418,87.1634615 9.12089552,88.3884615 L9.12089552,87.0692308 L6.8641791,87.0692308 L6.8641791,97.3403846 L9.12089552,97.3403846 L9.12089552,91.5923077 C9.12089552,89.8019231 10.1552239,88.8596154 11.6597015,88.8596154 C13.1641791,88.8596154 13.9164179,89.8019231 13.9164179,91.5923077 L13.9164179,97.3403846 L16.1731343,97.3403846 L16.1731343,91.5923077 C16.1731343,89.8019231 17.2074627,88.8596154 18.7119403,88.8596154 C20.2164179,88.8596154 20.9686567,89.8019231 20.9686567,91.5923077 L20.9686567,97.3403846 L23.1313433,97.3403846 L23.1313433,97.5288462 L23.1313433,97.5288462 Z M56.6059701,87.2576923 L52.938806,87.2576923 L52.938806,84.1480769 L50.6820896,84.1480769 L50.6820896,87.2576923 L48.6134328,87.2576923 L48.6134328,89.3307692 L50.6820896,89.3307692 L50.6820896,94.0423077 C50.6820896,96.3980769 51.6223881,97.9057692 54.2552239,97.9057692 C55.1955224,97.9057692 56.3238806,97.6230769 57.0761194,97.1519231 L56.4179104,95.2673077 C55.7597015,95.6442308 55.0074627,95.8326923 54.4432836,95.8326923 C53.3149254,95.8326923 52.938806,95.1730769 52.938806,94.1365385 L52.938806,89.5192308 L56.6059701,89.5192308 C56.6059701,89.5192308 56.6059701,87.2576923 56.6059701,87.2576923 Z M75.6940299,86.975 C74.3776119,86.975 73.5313433,87.5403846 72.9671642,88.4826923 L72.9671642,87.2576923 L70.7104478,87.2576923 L70.7104478,97.5288462 L72.9671642,97.5288462 L72.9671642,91.7807692 C72.9671642,90.0846154 73.719403,89.1423077 75.1298507,89.1423077 C75.6,89.1423077 76.0701493,89.2365385 76.5402985,89.425 L77.1985075,87.3519231 C76.8223881,87.0692308 76.1641791,86.975 75.6940299,86.975 L75.6940299,86.975 Z M46.8268657,88.1057692 C45.7925373,87.3519231 44.2880597,87.0692308 42.5955224,87.0692308 C39.9626866,87.0692308 38.2701493,88.2942308 38.2701493,90.3673077 C38.2701493,92.0634615 39.4925373,93.1 41.8432836,93.3826923 L42.8776119,93.5711538 C44.1,93.7596154 44.6641791,94.0423077 44.6641791,94.6076923 C44.6641791,95.3615385 43.8179104,95.8326923 42.3134328,95.8326923 C40.8089552,95.8326923 39.680597,95.3615385 38.9283582,94.7961538 L37.8940299,96.5865385 C39.1164179,97.5288462 40.7149254,97.9057692 42.3134328,97.9057692 C45.3223881,97.9057692 47.0149254,96.4923077 47.0149254,94.5134615 C47.0149254,92.7230769 45.6985075,91.7807692 43.441791,91.4038462 L42.4074627,91.2153846 C41.4671642,91.1211538 40.6208955,90.9326923 40.6208955,90.1788462 C40.6208955,89.425 41.3731343,88.9538462 42.5955224,88.9538462 C43.9119403,88.9538462 45.1343284,89.425 45.7925373,89.8019231 L46.8268657,88.1057692 Z M106.81791,86.975 C105.501493,86.975 104.655224,87.5403846 104.091045,88.4826923 L104.091045,87.2576923 L101.834328,87.2576923 L101.834328,97.5288462 L104.091045,97.5288462 L104.091045,91.7807692 C104.091045,90.0846154 104.843284,89.1423077 106.253731,89.1423077 C106.723881,89.1423077 107.19403,89.2365385 107.664179,89.425 L108.322388,87.3519231 C107.946269,87.0692308 107.28806,86.975 106.81791,86.975 L106.81791,86.975 Z M77.9507463,92.4403846 C77.9507463,95.55 80.1134328,97.8115385 83.4044776,97.8115385 C84.9089552,97.8115385 85.9432836,97.4346154 87.0716418,96.5865385 L86.0373134,94.7961538 C85.1910448,95.3615385 84.3447761,95.7384615 83.3104478,95.7384615 C81.5238806,95.7384615 80.2074627,94.4192308 80.2074627,92.4403846 C80.2074627,90.4615385 81.5238806,89.1423077 83.3104478,89.1423077 C84.2507463,89.1423077 85.1910448,89.425 86.0373134,90.0846154 L87.0716418,88.2942308 C85.9432836,87.4461538 84.9089552,87.0692308 83.4044776,87.0692308 C80.1134328,86.975 77.9507463,89.2365385 77.9507463,92.4403846 L77.9507463,92.4403846 Z M98.919403,92.4403846 L98.919403,87.2576923 L96.6626866,87.2576923 L96.6626866,88.4826923 C95.9104478,87.5403846 94.8761194,86.975 93.3716418,86.975 C90.4567164,86.975 88.2,89.2365385 88.2,92.3461538 C88.2,95.4557692 90.4567164,97.7173077 93.3716418,97.7173077 C94.8761194,97.7173077 95.9104478,97.1519231 96.6626866,96.2096154 L96.6626866,97.4346154 L98.919403,97.4346154 L98.919403,92.4403846 Z M90.6447761,92.4403846 C90.6447761,90.65 91.8671642,89.1423077 93.7477612,89.1423077 C95.6283582,89.1423077 96.8507463,90.5557692 96.8507463,92.4403846 C96.8507463,94.325 95.6283582,95.7384615 93.7477612,95.7384615 C91.7731343,95.7384615 90.6447761,94.2307692 90.6447761,92.4403846 L90.6447761,92.4403846 Z M63.5641791,86.975 C60.5552239,86.975 58.3925373,89.1423077 58.3925373,92.3461538 C58.3925373,95.6442308 60.5552239,97.7173077 63.658209,97.7173077 C65.1626866,97.7173077 66.6671642,97.3403846 67.8895522,96.3038462 L66.761194,94.6076923 C65.9149254,95.2673077 64.7865672,95.6442308 63.7522388,95.6442308 C62.341791,95.6442308 61.0253731,94.9846154 60.6492537,93.1 L68.2656716,93.1 C68.2656716,92.8173077 68.2656716,92.5346154 68.2656716,92.2519231 C68.4537313,89.2365385 66.4791045,86.975 63.5641791,86.975 L63.5641791,86.975 Z M63.5641791,88.9538462 C64.9746269,88.9538462 65.9149254,89.8961538 66.1970149,91.4980769 L60.8373134,91.4980769 C61.0253731,89.9903846 61.9656716,88.9538462 63.5641791,88.9538462 L63.5641791,88.9538462 Z M119.7,92.4403846 L119.7,83.1115385 L117.443284,83.1115385 L117.443284,88.4826923 C116.691045,87.5403846 115.656716,86.975 114.152239,86.975 C111.237313,86.975 108.980597,89.2365385 108.980597,92.3461538 C108.980597,95.4557692 111.237313,97.7173077 114.152239,97.7173077 C115.656716,97.7173077 116.691045,97.1519231 117.443284,96.2096154 L117.443284,97.4346154 L119.7,97.4346154 L119.7,92.4403846 Z M111.425373,92.4403846 C111.425373,90.65 112.647761,89.1423077 114.528358,89.1423077 C116.408955,89.1423077 117.631343,90.5557692 117.631343,92.4403846 C117.631343,94.325 116.408955,95.7384615 114.528358,95.7384615 C112.553731,95.7384615 111.425373,94.2307692 111.425373,92.4403846 L111.425373,92.4403846 Z M35.7313433,92.4403846 L35.7313433,87.2576923 L33.4746269,87.2576923 L33.4746269,88.4826923 C32.7223881,87.5403846 31.6880597,86.975 30.1835821,86.975 C27.2686567,86.975 25.0119403,89.2365385 25.0119403,92.3461538 C25.0119403,95.4557692 27.2686567,97.7173077 30.1835821,97.7173077 C31.6880597,97.7173077 32.7223881,97.1519231 33.4746269,96.2096154 L33.4746269,97.4346154 L35.7313433,97.4346154 L35.7313433,92.4403846 Z M27.4567164,92.4403846 C27.4567164,90.65 28.6791045,89.1423077 30.5597015,89.1423077 C32.4402985,89.1423077 33.6626866,90.5557692 33.6626866,92.4403846 C33.6626866,94.325 32.4402985,95.7384615 30.5597015,95.7384615 C28.5850746,95.7384615 27.4567164,94.2307692 27.4567164,92.4403846 Z M123.461194,96.1153846 C123.649254,96.1153846 123.743284,96.1153846 123.837313,96.2096154 C123.931343,96.3038462 124.119403,96.3038462 124.213433,96.3980769 C124.307463,96.4923077 124.401493,96.5865385 124.401493,96.6807692 C124.495522,96.775 124.495522,96.9634615 124.495522,97.0576923 C124.495522,97.1519231 124.495522,97.3403846 124.401493,97.4346154 C124.307463,97.5288462 124.307463,97.6230769 124.213433,97.7173077 C124.119403,97.8115385 124.025373,97.9057692 123.837313,97.9057692 C123.743284,98 123.555224,98 123.461194,98 C123.273134,98 123.179104,98 123.085075,97.9057692 C122.991045,97.8115385 122.802985,97.8115385 122.708955,97.7173077 C122.614925,97.6230769 122.520896,97.5288462 122.520896,97.4346154 C122.426866,97.3403846 122.426866,97.1519231 122.426866,97.0576923 C122.426866,96.9634615 122.426866,96.775 122.520896,96.6807692 C122.614925,96.5865385 122.614925,96.4923077 122.708955,96.3980769 C122.802985,96.3038462 122.897015,96.2096154 123.085075,96.2096154 C123.179104,96.1153846 123.273134,96.1153846 123.461194,96.1153846 Z M123.461194,97.9057692 C123.555224,97.9057692 123.649254,97.9057692 123.743284,97.8115385 C123.837313,97.8115385 123.931343,97.7173077 124.025373,97.6230769 C124.119403,97.5288462 124.119403,97.4346154 124.213433,97.3403846 C124.213433,97.2461538 124.307463,97.1519231 124.307463,97.0576923 C124.307463,96.9634615 124.307463,96.8692308 124.213433,96.775 C124.213433,96.6807692 124.119403,96.5865385 124.025373,96.4923077 C123.931343,96.3980769 123.837313,96.3980769 123.743284,96.3038462 C123.649254,96.3038462 123.555224,96.2096154 123.461194,96.2096154 C123.367164,96.2096154 123.273134,96.2096154 123.179104,96.3038462 C123.085075,96.3038462 122.991045,96.3980769 122.897015,96.4923077 C122.802985,96.5865385 122.802985,96.6807692 122.708955,96.775 C122.708955,96.8692308 122.614925,96.9634615 122.614925,97.0576923 C122.614925,97.1519231 122.614925,97.2461538 122.708955,97.3403846 C122.708955,97.4346154 122.802985,97.5288462 122.897015,97.6230769 C122.991045,97.7173077 123.085075,97.7173077 123.179104,97.8115385 C123.273134,97.9057692 123.367164,97.9057692 123.461194,97.9057692 Z M123.555224,96.5865385 C123.649254,96.5865385 123.743284,96.5865385 123.837313,96.6807692 C123.931343,96.775 123.931343,96.775 123.931343,96.8692308 C123.931343,96.9634615 123.931343,97.0576923 123.837313,97.0576923 C123.743284,97.1519231 123.743284,97.1519231 123.649254,97.1519231 L123.931343,97.5288462 L123.649254,97.5288462 L123.367164,97.1519231 L123.273134,97.1519231 L123.273134,97.5288462 L123.085075,97.5288462 L123.085075,96.5865385 C123.085075,96.5865385 123.555224,96.5865385 123.555224,96.5865385 Z M123.273134,96.775 L123.273134,97.0576923 L123.461194,97.0576923 C123.555224,97.0576923 123.555224,97.0576923 123.555224,97.0576923 L123.649254,96.9634615 C123.649254,96.9634615 123.649254,96.8692308 123.555224,96.8692308 L123.461194,96.8692308 L123.273134,96.8692308 L123.273134,96.775 Z" id="XMLID_1775_" fill="#000000"></path>
                <g id="XMLID_328_">
                    <rect id="矩形" fill="#F26522" x="46.0746269" y="8.66923077" width="33.9447761" height="61.0615385"></rect>
                    <path d="M48.2373134,39.2 C48.2373134,26.7615385 54.0671642,15.7365385 63,8.66923077 C56.4179104,3.48653846 48.0492537,0.376923077 39.0223881,0.376923077 C17.5835821,0.376923077 0.282089552,17.8096154 0.282089552,39.2 C0.282089552,60.6846154 17.6776119,78.0230769 39.0223881,78.0230769 C48.0492537,78.0230769 56.4179104,74.9134615 63,69.7307692 C54.0671642,62.5692308 48.2373134,51.5442308 48.2373134,39.2 Z" id="XMLID_330_" fill="#E51B24"></path>
                    <path d="M122.050746,63.2288462 L122.050746,62.0038462 L122.520896,62.0038462 L122.520896,61.7211538 L121.298507,61.7211538 L121.298507,62.0038462 L121.768657,62.0038462 L121.768657,63.2288462 L122.050746,63.2288462 Z M124.589552,63.2288462 L124.589552,61.7211538 L124.213433,61.7211538 L123.743284,62.7576923 L123.273134,61.7211538 L122.897015,61.7211538 L122.897015,63.2288462 L123.179104,63.2288462 L123.179104,62.0980769 L123.649254,63.0403846 L123.931343,63.0403846 L124.401493,62.0980769 L124.401493,63.2288462 L124.589552,63.2288462 Z" id="形状" fill="#231F20"></path>
                    <path d="M125.81194,39.2 C125.81194,60.6846154 108.416418,78.0230769 87.0716418,78.0230769 C78.0447761,78.0230769 69.6761194,74.9134615 63.0940299,69.7307692 C72.1208955,62.6634615 77.8567164,51.5442308 77.8567164,39.2 C77.8567164,26.8557692 72.0268657,15.7365385 63.0940299,8.66923077 C69.6761194,3.48653846 78.0447761,0.376923077 87.0716418,0.376923077 C108.416418,0.376923077 125.81194,17.7153846 125.81194,39.2 Z" id="路径" fill="#F99F1C"></path>
                </g>
            </g>
        </g>
    </g>
</svg>