<?xml version="1.0" encoding="UTF-8"?>
<svg width="185px" height="74px" viewBox="0 0 185 74" version="1.1" xmlns="http://www.w3.org/2000/svg" xmlns:xlink="http://www.w3.org/1999/xlink">
    <!-- Generator: Sketch 56.2 (81672) - https://sketch.com -->
    <title>merpay</title>
    <desc>Created with Sketch.</desc>
    <g id="页面1" stroke="none" stroke-width="1" fill="none" fill-rule="evenodd">
        <g id="logo-svg" transform="translate(-2428.000000, -1490.000000)" fill-rule="nonzero">
            <g id="merpay" transform="translate(2428.000000, 1490.000000)">
                <polygon id="路径" fill="#222222" points="177.92912 28 170.322936 46.7012376 162.625062 28 155 28 166.895366 54.4412043 160.632163 69 167.208189 69 185 28"></polygon>
                <path d="M105.482705,14.014653 L95.921661,14.014653 L95.921661,14 L89,14 L89,57 L95.921661,57 L95.921661,40.3101921 L105.482705,40.3101921 C114.579273,40.3101921 120,34.8486059 120,27.2556691 C120,19.5455081 114.572381,14.014653 105.482705,14.014653 Z M106.651476,34.0040582 L96.0112484,34.0040582 L96.0112484,20.3207869 L106.651476,20.3207869 C111.325182,20.3207869 112.991508,24.4822491 112.991508,27.2476766 C112.984617,30.0663879 111.319669,34.0040582 106.651476,34.0040582 L106.651476,34.0040582 Z" id="形状" fill="#222222"></path>
                <path d="M137.139506,27 C128.371478,27 122,33.3088394 122,42 C122,50.8312972 127.968459,57 136.503302,57 C140.007817,57 143.781911,54.9235537 145.154063,52.3229429 L145.154063,56.8167445 L152,56.8167445 L152,41.9946101 C152.001347,32.8870823 146.262029,27 137.139506,27 Z M137.076155,50.9849084 C132.041784,50.9849084 128.907939,47.5421308 128.907939,42.0013475 C128.907939,36.8809738 132.423237,33.0164391 137.076155,33.0164391 C142.035045,33.0164391 145.096104,36.5427596 145.096104,42.0013475 C145.096104,46.3550126 142.377409,50.9835609 137.076155,50.9835609 L137.076155,50.9849084 Z" id="形状" fill="#222222"></path>
                <path d="M37.718168,73.3651267 L66.6627621,59.0394903 C68.7058997,58.03157 69.9978535,55.9685917 70,53.7106239 L70,20.2886438 C69.9981734,18.0305858 68.7061239,15.9674546 66.6627621,14.9597774 L37.718168,0.63549244 C36.0063732,-0.211830813 33.9908936,-0.211830813 32.2790988,0.63549244 L3.33587131,14.9611289 C1.2934806,15.9689661 0.00208542532,18.0313739 0,20.2886438 L0,53.7119753 C0.00214647077,55.9699432 1.2941003,58.0329215 3.33723791,59.0408418 L32.2804654,73.3664782 C33.9924064,74.2116492 36.0066568,74.2111486 37.718168,73.3651267 Z" id="路径" fill="#FF0211"></path>
                <circle id="椭圆形" fill="#4DC9FF" cx="59.5" cy="20.5" r="15.5"></circle>
                <path d="M10.0063186,48.7033434 L7,47.1545878 L7,38.0283355 C7,35.3554609 8.47434261,32.6922058 11.496745,33.0288918 C14.3288231,33.3435902 16.5148711,35.9147719 17.1930687,37.6119443 C18.253255,36.6596038 19.2236405,36.4575922 20.6189048,36.6499842 C22.1669645,36.8684866 28,39.1483318 28,47.2452869 L28,58 L24.7041741,56.298705 L24.7041741,46.224235 C24.7041741,43.2710177 22.9416645,40.8015289 20.5666326,40.5184378 C19.5855246,40.4016283 18.7397881,41.2055521 18.7116416,42.9439513 C18.683495,44.6823505 18.7116416,53.1901998 18.7116416,53.1901998 L15.6865586,51.6331988 L15.6865586,42.094678 C15.6865586,37.8826673 13.0367628,36.5537882 11.8760531,36.4232365 C11.2219811,36.3490282 9.99961705,36.7503029 9.99961705,38.9064676 L10.0063186,48.7033434 Z" id="路径" fill="#FFFFFF"></path>
            </g>
        </g>
    </g>
</svg>