<?xml version="1.0" encoding="UTF-8"?>
<svg width="199px" height="82px" viewBox="0 0 199 82" version="1.1" xmlns="http://www.w3.org/2000/svg" xmlns:xlink="http://www.w3.org/1999/xlink">
    <!-- Generator: Sketch 56.2 (81672) - https://sketch.com -->
    <title>origamipay</title>
    <desc>Created with Sketch.</desc>
    <defs>
        <polygon id="path-1" points="0.00619681812 0.0241285112 10.977796 0.0241285112 10.977796 11 0.00619681812 11"></polygon>
        <polygon id="path-3" points="0 0.0330734198 81.9671343 0.0330734198 81.9671343 58.9813121 0 58.9813121"></polygon>
        <polygon id="path-5" points="0.00234 0.0134480853 35.9921739 0.0134480853 35.9921739 44.9704953 0.00234 44.9704953"></polygon>
        <polygon id="path-7" points="0.0326685931 0.0344185464 11.9785599 0.0344185464 11.9785599 30.9742871 0.0326685931 30.9742871"></polygon>
    </defs>
    <g id="页面1" stroke="none" stroke-width="1" fill="none" fill-rule="evenodd">
        <g id="logo-svg" transform="translate(-2781.000000, -1675.000000)">
            <g id="origamipay" transform="translate(2781.000000, 1675.000000)">
                <path d="M39.0150812,81.7977062 C36.0955656,81.1340491 34.7223547,78.2190993 35.0465799,75.9182042 C35.4683332,72.9210666 37.8659617,70.8768725 40.7419247,71.0057661 C42.4542506,71.0825229 43.8453292,71.8269195 44.8663966,73.180302 C45.1746152,73.5887426 45.2438528,74.0261118 44.8008815,74.3899465 C44.4070466,74.715801 43.7585962,74.6433889 43.431393,74.2451222 C42.4222375,73.024978 41.1528829,72.4308366 39.5648868,72.8885174 C37.9571616,73.3519187 37.1225889,74.5271674 36.8385662,76.0941657 C36.546354,77.7053353 37.898347,79.7148078 39.5611643,80.1633647 C41.2813073,80.6257161 43.1216854,79.7422882 43.8177831,78.1173965 C43.8497962,78.0427758 43.8605913,77.9598639 43.9078663,77.7781095 C43.0416528,77.7781095 42.2301592,77.7889713 41.4190379,77.775213 C40.6336015,77.7618168 40.3268718,77.4041009 40.4225387,76.6673076 C40.4750252,76.2618359 40.6931606,76.0373222 41.1190086,76.036236 C42.4963142,76.0326516 43.8736198,76.030443 45.2509254,76.036236 C45.7783962,76.0384445 45.9861088,76.3338498 45.9987651,76.8244781 C46.0586965,79.1416659 43.9283398,81.7122961 41.5292223,81.938584 C41.0920581,81.9822123 40.6528093,82.0025963 40.2133371,81.999736 C39.9080964,82.0004964 39.3110158,81.8647236 39.0150812,81.7977062" id="Fill-1" fill="#FD5B19"></path>
                <g id="编组" transform="translate(0.000000, 71.000000)">
                    <mask id="mask-2" fill="white">
                        <use xlink:href="#path-1"></use>
                    </mask>
                    <g id="Clip-4"></g>
                    <path d="M5.48070265,9.23570607 C3.48212649,9.24633657 1.77421258,7.51374757 1.77129496,5.47216181 C1.76838477,3.48753398 3.48139801,1.7848479 5.4774245,1.78840219 C7.45815298,1.79161165 9.19265629,3.50106149 9.21560331,5.4753657 C9.23855033,7.4496699 7.48146424,9.22497735 5.48070265,9.23570607 M5.4697755,0.0241285112 C2.52818609,0.0191521036 0.00328543046,2.52850485 0.00619681812,5.45293851 C0.0105701987,8.46209709 2.52745762,11.0155922 5.47341788,11.0000005 C8.41937815,10.9842654 11.0134841,8.37452427 10.9774245,5.45827832 C10.9428219,2.54840453 8.38878212,0.0291197411 5.4697755,0.0241285112" id="Fill-3" fill="#FD5B19" mask="url(#mask-2)"></path>
                </g>
                <g id="编组">
                    <mask id="mask-4" fill="white">
                        <use xlink:href="#path-3"></use>
                    </mask>
                    <g id="Clip-6"></g>
                    <path d="M81.9671343,28.4451875 C81.7834945,28.7374811 81.6300103,29.0549057 81.4115756,29.3189752 C77.2078094,34.4029116 72.9994426,39.4831364 68.7864365,44.5596108 C65.2677821,48.8038218 61.7496303,53.0476075 58.231981,57.2910066 C56.7373464,59.0988965 55.0397415,59.4561442 52.9740838,58.3646829 C50.9980037,57.3213185 49.0217689,56.2783022 47.0454181,55.2356724 C45.0175322,54.1641613 42.994247,54.1718166 40.9756397,55.2584837 C39.0070211,56.3152642 37.0343818,57.3656265 35.0577991,58.4095322 C33.154131,59.418641 31.4847486,59.0478611 30.2100951,57.3188441 C25.4884261,50.9146763 20.7381479,44.5306134 16.074857,38.0850761 C14.8605148,36.4067078 12.8447298,35.5371731 10.5784214,36.6371403 C7.57562084,38.0947419 4.4970447,39.3969175 1.44359821,40.748582 C1.03069863,40.9314588 0.573338897,41.014198 0.136469496,41.1437196 L-3.8660888e-06,40.9233395 C0.180156436,40.6457379 0.325135219,40.3360459 0.54588958,40.095561 C3.61480047,36.7453972 6.67945865,33.3909804 9.7812314,30.069814 C10.877271,28.8956134 12.7295199,28.7467602 14.1673229,29.6692635 C16.7850598,31.3514981 19.3823064,33.0646632 21.9892182,34.7654562 C23.591833,35.8109083 25.1943318,36.8566311 26.7967147,37.9025859 C28.5685487,39.0624811 30.2108684,38.7245649 31.3467288,36.9452858 C37.5608674,27.2096285 43.7723771,17.4720767 49.9813351,7.73255315 C51.419138,5.47771697 52.8495954,3.21862785 54.300543,0.971524312 C54.5785157,0.540816579 54.8213068,-0.0816604849 55.462693,0.0513408257 C56.1040791,0.184342136 56.0039471,0.835429948 56.0426081,1.31678644 C56.2270211,3.56582313 56.3882375,5.81679299 56.5560263,8.06698958 C56.7784818,11.053101 56.9995841,14.0389031 57.2194492,17.0244732 C57.3740933,19.1381888 57.5109532,21.2530643 57.6644374,23.3652334 C57.8809391,26.3511901 58.109039,29.3367602 58.3259273,32.322717 C58.4805713,34.4360459 58.6201376,36.5501482 58.7732352,38.6634771 C58.7983648,39.0064195 58.8223347,39.3563212 58.9100951,39.686118 C59.2124242,40.8204955 60.1472474,41.2647353 61.2111984,40.751675 C61.810444,40.4620879 62.3710287,40.0878284 62.9393455,39.7383133 C68.8122234,36.1318126 74.6848306,32.5242681 80.5571673,28.9157183 C80.9437774,28.6783264 81.3559037,28.4823041 81.7556586,28.2669503 L81.9671343,28.4451875 Z" id="Fill-5" fill="#FD5B19" mask="url(#mask-4)"></path>
                </g>
                <path d="M102.566314,29.8481216 C102.566314,32.109772 102.583989,34.3714225 102.555172,36.6322834 C102.547103,37.2579974 102.7016,37.506704 103.359741,37.4936765 C105.399595,37.4541993 107.441371,37.511836 109.480842,37.4688058 C111.116491,37.4344606 112.697964,37.1008781 114.197982,36.3776552 C119.403473,33.8661139 119.116072,26.8577215 115.907441,24.237223 C114.397395,23.0043492 112.651127,22.394426 110.770688,22.3063917 C108.300116,22.1911182 105.822628,22.2396752 103.348982,22.1899339 C102.762308,22.1780908 102.544798,22.3608703 102.554057,22.9936903 C102.586332,25.2762637 102.566699,27.5616005 102.566314,29.8465425 L102.566314,29.8481216 Z M94,14.05723 C94.2689581,14.044992 94.4941144,14.0256482 94.7185023,14.0252534 C100.013556,14.0252534 105.310071,13.9569578 110.603934,14.044992 C115.016037,14.1184197 119.123757,15.2687861 122.492649,18.3989356 C125.2414,20.9523228 126.606939,24.2056412 126.92162,27.9678211 C127.173287,30.9748017 126.844774,33.8894055 125.558386,36.6255722 C123.491252,41.0237303 119.916453,43.4831617 115.45709,44.7547232 C113.305425,45.3678046 111.098087,45.583745 108.872228,45.6006807 C107.038357,45.6161163 105.204024,45.6298939 103.370883,45.5896666 C102.744979,45.5758101 102.549063,45.7558657 102.552866,46.4131221 C102.579378,50.6526212 102.566314,54.8920808 102.566314,59.131501 L102.566314,60 L94,60 L94,14.05723 Z" id="Fill-7" fill="#FD5B19"></path>
                <path d="M145.812729,42.9613455 C144.287819,42.9124618 142.679669,43.0869917 141.170173,43.7904576 C139.100003,44.7547635 138.344638,46.3217129 138.407839,48.1869289 C138.474123,50.1552587 139.718098,51.6068733 141.768692,52.1969139 C144.450099,52.9698481 147.042446,52.6464142 149.483767,51.3345762 C151.036848,50.5004993 152.176735,49.2462905 152.57251,47.5090504 C152.781766,46.5924824 152.72319,45.6167194 152.807586,44.6692172 C152.846123,44.2185713 152.639564,44.0352576 152.225291,43.9077019 C150.174351,43.2783252 148.083717,42.931557 145.812729,42.9613455 M135.122943,33.7147018 C134.324494,31.4397036 133.550246,29.2330661 132.72829,26.8919986 C134.111346,26.3775748 135.435517,25.8096845 136.805508,25.3895909 C141.606027,23.9169716 146.49021,23.4945865 151.40214,24.7098029 C156.787305,26.0422637 160.012122,29.7280128 160.732726,35.1873211 C160.892847,36.3818765 160.977166,37.5851776 160.985144,38.7901972 C161.009807,44.9892522 160.996319,51.1886891 160.996319,57.3888898 L160.996319,58.2542828 C160.716155,58.2729961 160.495338,58.300875 160.273365,58.3012569 C157.97386,58.3043122 155.673585,58.2817799 153.375236,58.3172969 C152.752478,58.3268445 152.571354,58.1213805 152.604496,57.5355407 C152.645383,56.7758968 152.614515,56.0128921 152.614515,55.0485862 C152.257277,55.3380689 152.083514,55.4724989 151.916995,55.6153307 C149.425191,57.7539894 146.507552,58.8164445 143.236529,58.9760801 C139.98516,59.1330424 136.918383,58.5353637 134.210771,56.6529621 C131.463466,54.7434454 130.107772,52.0938 130.007152,48.7643667 C129.914278,45.6804972 130.715848,42.9483607 133.003406,40.7676927 C134.725626,39.1255083 136.844006,38.2131412 139.149292,37.7227773 C143.407248,36.8161388 147.632833,37.0983654 151.827974,38.1482177 C152.068831,38.2081765 152.311653,38.2597334 152.554783,38.3158732 C152.909324,36.5633188 151.945127,33.8632622 149.958543,32.7206074 C148.047492,31.6211077 145.966492,31.4832406 143.828458,31.5687869 C140.917756,31.6833579 138.184748,32.4853549 135.527196,33.6012765 C135.423532,33.6409944 135.311003,33.6608534 135.122943,33.7147018" id="Fill-9" fill="#FD5B19"></path>
                <g id="编组" transform="translate(163.000000, 25.000000)">
                    <mask id="mask-6" fill="white">
                        <use xlink:href="#path-5"></use>
                    </mask>
                    <g id="Clip-12"></g>
                    <path d="M5.13625304,36.1788964 C6.27103565,36.5863921 7.29269217,37.0480906 8.3637313,37.3206642 C11.0571183,38.0058419 12.8864661,37.089815 14.0059487,34.5497327 C14.12334,34.2856989 14.0572096,33.8727439 13.9382139,33.5857422 C10.930453,26.3327093 7.91154,19.0850186 4.88151391,11.8426313 C3.34235739,8.15528293 1.80574435,4.46742764 0.271557391,0.77902643 C0.185431304,0.572353986 0.112648696,0.36022227 0.00234,0.0673713172 C0.305209565,0.0513834489 0.527861739,0.0283765165 0.750513913,0.0283765165 C3.27204,0.0260368284 5.79364435,0.0431945407 8.31520957,0.0134480853 C8.85325304,0.00731932409 9.07081826,0.198393847 9.25981826,0.683918111 C12.1249487,8.04091118 15.0039313,15.3932639 17.8966878,22.7409372 C18.0387313,23.10238 18.1972096,23.4580126 18.4218183,23.9926313 C18.6436487,23.4229172 18.807253,23.0255602 18.9535617,22.621964 C21.6048052,15.3107119 24.2501791,7.99774393 26.8896443,0.683138215 C27.0716009,0.176205806 27.2985965,0.0104779029 27.8287748,0.0162881282 C30.3033835,0.0428045927 32.7783835,0.0279865685 35.2533835,0.0279865685 L35.9922052,0.0279865685 C35.7793357,0.599260399 35.6036009,1.08942504 35.4150313,1.57491031 C30.9802226,12.9811625 26.5428313,24.3866347 22.1028183,35.7913271 C21.2631183,37.9453609 20.2370791,40.0027656 18.6918183,41.7598323 C16.7904704,43.9193644 14.34834,44.8541088 11.506727,44.957406 C8.40250957,45.069711 5.48416174,44.4645117 2.76925304,42.9418037 C2.46716609,42.7721373 2.13025304,42.6652916 2.36664,42.1661581 C3.30964435,40.1731339 4.22060087,38.1649016 5.13625304,36.1788964" id="Fill-11" fill="#FD5B19" mask="url(#mask-6)"></path>
                </g>
                <g id="编组" transform="translate(29.000000, 0.000000)">
                    <mask id="mask-8" fill="white">
                        <use xlink:href="#path-7"></use>
                    </mask>
                    <g id="Clip-14"></g>
                    <path d="M0.0354361905,15.5446004 C0.0354361905,10.8650766 0.0213409524,6.18555276 0.0567695238,1.50641742 C0.0601980952,1.03131717 0.226293333,0.344888596 0.552007619,0.133560276 C1.07200762,-0.203244236 1.48915048,0.394612907 1.82857905,0.78463797 C4.92697905,4.35857281 8.01878857,7.93911165 11.1040076,11.5262545 C12.1904838,12.7950014 12.269341,14.5633222 11.3142933,15.9590991 C8.06347429,20.705168 4.80000762,25.4410202 1.52381714,30.1666555 C1.27924571,30.5186104 0.81143619,30.7105152 0.447626667,30.9742871 C0.310102857,30.5337608 0.0563885714,30.0940114 0.0537219048,29.6534851 C0.0243885714,24.9502645 0.0354361905,20.2474325 0.0354361905,15.5446004" id="Fill-13" fill="#FD5B19" mask="url(#mask-8)"></path>
                </g>
                <path d="M73.0502736,75.2692314 C72.5712909,76.0360699 72.092092,76.803055 71.6126407,77.5701501 C71.1987986,78.2345748 70.7968526,78.9066997 70.3739982,79.5652574 C69.8332637,80.4049553 69.140042,80.3932215 68.6047149,79.5373531 C67.832546,78.3020439 67.0704708,77.0600979 66.3023034,75.8221853 C66.1887131,75.6388451 66.0668676,75.4617386 65.8282234,75.0976251 C65.8033496,75.5053369 65.7788363,75.7231816 65.7784758,75.9409897 C65.7752314,77.6243821 65.7824412,79.3081779 65.7737895,80.9920104 C65.7701846,81.6887029 65.5214467,81.9761802 64.9504671,81.998181 C64.3015857,82.0230786 64.0492429,81.7953702 64.0099135,81.1306155 C63.9940519,80.8688058 64.0019827,80.605896 64.0019827,80.343353 C64.0019827,77.6321191 63.9980534,74.9205185 64.0059481,72.2092846 C64.0059481,71.762668 63.9158257,71.222548 64.4926091,71.0549751 C65.0755209,70.8852022 65.4832348,71.1132773 65.8159667,71.6750315 C66.8689571,73.4523307 67.9789048,75.195162 69.0683046,76.9497271 C69.1811379,77.1330672 69.3073093,77.3046736 69.490438,77.5730836 C69.6598682,77.3347414 69.7986567,77.1598716 69.9162124,76.9713612 C71.0181933,75.1984621 72.1342693,73.4343634 73.2052841,71.6423969 C73.5243175,71.1088771 73.9219376,70.9013361 74.4828595,71.0440114 C75.0354902,71.1847799 74.9961968,71.6780016 74.9969178,72.1132144 C75.0010274,75.0435031 75.0010274,77.9736451 74.9969178,80.9036404 C74.9969178,81.7569421 74.8000905,81.9897474 74.1465227,81.9974477 C73.4803377,82.0051479 73.2283555,81.7096403 73.226553,80.8890099 C73.2224795,79.0335711 73.2224795,77.1780589 73.226553,75.3224001 L73.0502736,75.2692314 Z" id="Fill-15" fill="#FD5B19"></path>
                <path d="M19.3064388,76.5304099 C20.1176643,76.5304099 20.8581973,76.5369964 21.6435408,76.4048628 C22.603491,76.2431262 23.2304524,75.3536116 23.1269246,74.4830883 C23.0152845,73.5426743 22.2245328,72.806407 21.2475855,72.7896112 C19.9813012,72.767656 18.7142442,72.7940023 17.4479598,72.77717 C17.0643661,72.7720471 16.9013484,72.900485 16.9047707,73.262709 C16.9133236,74.1789723 16.9133236,75.0952356 16.9047707,76.0114989 C16.9013484,76.4162429 17.1192204,76.5420827 17.5128579,76.5304099 L19.3064388,76.5304099 Z M16.8967128,78.2868252 C16.8967128,79.2605013 16.9140962,80.1709099 16.8913046,81.0802573 C16.8735349,81.7853483 16.5822664,82.0144507 15.8525497,81.9741995 C15.2437443,81.9405349 15.0026944,81.6382851 15.0026944,80.8731467 C14.9991019,78.2114091 14.9991019,75.5495983 15.0026944,72.8876412 C15.0026944,72.6040533 14.9976726,72.3204654 15.0026944,72.0368775 C15.0208504,71.2556752 15.2630592,71.0203888 16.070808,71.0181566 C17.7755404,71.0137656 19.481818,71.066824 21.1834601,71.0024587 C22.839519,70.9398864 24.3700311,72.0789949 24.8351337,73.5784978 C25.3330716,75.1823246 24.6767902,76.8717765 23.2215676,77.7499841 C23.0318953,77.8641511 22.8387464,77.9735612 22.589198,78.1188314 C23.2872382,78.9494694 23.9470349,79.7288787 24.6018098,80.5145452 C25.100134,81.1109946 25.126016,81.4889898 24.7010883,81.8208425 C24.2927715,82.1399612 23.4985431,82.0210372 23.1068371,81.5574168 C22.3442851,80.6553878 21.5720757,79.7585548 20.8524028,78.8257885 C20.5290715,78.4068103 20.1709734,78.255356 19.6363372,78.2769087 C18.7644629,78.3146351 17.8914298,78.2868252 16.8967128,78.2868252 L16.8967128,78.2868252 Z" id="Fill-17" fill="#FD5B19"></path>
                <path d="M52.7665056,77.4523107 L56.2617833,77.4523107 L54.5193502,73.9015188 L52.7665056,77.4523107 Z M58.9907027,81.9643566 C58.8807502,81.9611768 58.7739583,81.9273684 58.6828208,81.8667692 C58.5059374,81.7437799 58.3565701,81.5863974 58.2440519,81.404417 C57.9093977,80.8675036 57.6993092,80.2585876 57.3672578,79.7231362 C57.2345116,79.5085902 56.9210521,79.2783278 56.6812166,79.2713834 C55.2404557,79.2297169 53.7988396,79.2297169 52.3563682,79.2713834 C52.115789,79.2786933 51.796752,79.5071282 51.6643776,79.7227707 C51.3334418,80.2607806 51.0980683,80.8558078 50.8091501,81.4175749 C50.5440296,81.931864 49.8962877,82.1555109 49.4054615,81.8832165 C48.8774515,81.5908199 48.9440105,81.1354486 49.1622794,80.6880452 C50.6470287,77.6460235 52.1421895,74.6087532 53.624336,71.564904 C53.8236412,71.1559141 54.1278047,70.9070115 54.5621115,71.032742 C54.8792894,71.125249 55.2793871,71.3251387 55.4117615,71.5886612 C56.9217958,74.5937678 58.3927871,77.6193423 59.8619193,80.6427237 C60.2400785,81.4267122 59.8061435,81.9899048 58.9907027,81.9643566 L58.9907027,81.9643566 Z" id="Fill-19" fill="#FD5B19"></path>
                <path d="M81.9936875,76.4351178 C81.9936875,77.98846 81.9817221,79.5420959 81.9998766,81.0950342 C82.0064782,81.6890423 81.7490152,82.0010985 81.0566709,82 C80.3552494,82 80.0111402,81.7386042 80.0086646,81.0902616 C79.9971118,78.0274487 79.9971118,74.9643788 80.0086646,71.9011253 C80.0115528,71.2531499 80.3507108,71.0097461 81.0673985,71.0002008 C81.7840863,70.9906556 82.0052404,71.3218022 81.9986387,71.9062651 C81.9825473,73.4158827 81.9936875,74.9255003 81.9936875,76.4351178" id="Fill-21" fill="#FD5B19"></path>
                <path d="M30.9974052,76.5212885 C30.9974052,78.0318265 31.0023719,79.5427318 30.9974052,81.0532698 C30.9940942,81.7707018 30.7536274,81.9962539 30.0285023,82 C29.3311074,82.0036009 29.0078638,81.7306975 29.0062083,81.0709392 C28.9979306,78.0057447 28.9979306,74.9407339 29.0062083,71.8757965 C29.0062083,71.2630588 29.3294518,71.0029759 30.0040831,71 C30.7213445,70.996731 30.9899553,71.2138708 30.9945081,71.8582005 C31.0048552,73.4124162 30.9974052,74.967036 30.9974052,76.5212885" id="Fill-23" fill="#FD5B19"></path>
            </g>
        </g>
    </g>
</svg>