<?xml version="1.0" encoding="UTF-8"?>
<svg width="161px" height="84px" viewBox="0 0 161 84" version="1.1" xmlns="http://www.w3.org/2000/svg" xmlns:xlink="http://www.w3.org/1999/xlink">
    <!-- Generator: Sketch 56.2 (81672) - https://sketch.com -->
    <title>Paidy</title>
    <desc>Created with Sketch.</desc>
    <g id="页面1" stroke="none" stroke-width="1" fill="none" fill-rule="evenodd">
        <g id="logo-svg" transform="translate(-2095.000000, -1485.000000)" fill-rule="nonzero">
            <g id="Paidy" transform="translate(2095.000000, 1485.000000)">
                <path d="M23.6019221,55.4078663 C23.6019221,52.1720514 22.9726042,49.6803374 21.6907465,47.9372753 C20.4135331,46.1987644 18.597568,45.33406 16.2149845,45.33406 C13.9160005,45.33406 12.130224,46.1987644 10.8530106,47.9372753 C9.6617189,49.5164986 9.07420076,52.0059371 9.07420076,55.4078663 C9.07420076,58.5481086 9.70584082,60.914668 10.9830542,62.4847891 C12.2579453,64.2346778 14.0901659,65.0925556 16.4657828,65.0925556 C18.6742008,65.0925556 20.4135331,64.2346778 21.6907465,62.4847891 C22.9726042,60.7553803 23.6019221,58.3910965 23.6019221,55.4078663 Z M9.07652297,79.7674995 C9.07652297,82.7416275 7.25126898,84.0000007 4.74328639,84.0000007 L0.405405405,84.0000007 L0.405405405,53.0367558 C0.405405405,47.2409607 4.51571019,38.0000007 16.9743459,38.0000007 C19.1061311,38.0000007 32.4054054,37.9635927 32.4054054,55.0255759 C32.4054054,71.4026222 22.7519947,72.4470941 18.7578002,72.4470941 C13.4097595,72.4470941 10.091327,69.2067281 9.07420076,67.4636661 L9.07420076,79.7674995 L9.07652297,79.7674995 Z" id="形状" fill="#004094"></path>
                <path d="M126.240051,11.962841 L125.335195,11.5609458 L124.43034,11.1613341 L114.084211,6.59662686 C110.946141,5.2103212 107.260169,6.30815998 105.405405,9.18154363 L105.926731,10.3917962 L109.415248,18.5027718 L127.154093,18.5027718 L127.154093,29 L130.275156,22.0695915 L130.679356,21.1721778 L131.083555,20.2770477 L133.405405,15.1231986 L126.240051,11.962841 L126.240051,11.962841 Z" id="路径" fill="#8EC31F"></path>
                <path d="M81.2033381,18.5347397 L105.405405,18.5347397 L103.092611,13.1070855 L102.473276,11.6555836 L102.228741,11.0777345 L101.831087,10.1513414 L101.362586,9.0483834 L101.191183,8.64251319 L97.5048817,0 L85.5935337,5.06076588 L84.0851896,5.7005274 L82.5791308,6.34258198 L65.3748662,13.6528319 C59.5631706,16.122449 56.8481511,22.8548498 59.318636,28.6585645 L64.1521933,40 L64.1521933,35.5675304 C64.1521933,26.1751892 71.8013264,18.5347397 81.2056235,18.5347397" id="路径" fill="#00A0E8"></path>
                <path d="M108.595129,22 L81.2367169,22 C73.6108541,22 67.4054054,28.2061382 67.4054054,35.8322665 L67.4054054,78 L109.574094,78 C117.199957,78 123.405405,71.7938618 123.405405,64.1677335 L123.405405,22 L108.595129,22 Z" id="路径" fill="#E3007E"></path>
                <path d="M55.3189347,54.3921197 C48.8125789,57.412322 43.4986772,56.4824965 43.4986772,61.0785568 C43.4986772,62.3360131 43.9906212,65.1024168 47.8490942,65.1024168 C50.1773267,65.1024168 55.3189347,64.7055682 55.3189347,57.5484503 L55.3189347,54.3921197 Z M56.83784,70.0653313 C50.7168782,73.1039916 35.4054054,74.0753478 35.4054054,61.330048 C35.4054054,57.7999415 36.4663721,55.3311742 38.4522842,53.7622379 C44.3306746,49.1384905 55.1942484,50.6728179 55.1942484,46.9558234 C55.1942484,45.6983671 54.4393298,43.9286993 49.714854,43.9286993 C45.8677161,43.9286993 45.0311847,45.3984234 44.6163195,46.3282489 L36.2736752,46.3282489 C36.6069275,43.7256605 38.8014057,37 49.3430623,37 C62.2514907,37 63.4054054,43.4234096 63.4054054,46.4528409 L63.4054054,57.919919 C63.4054054,65.9814826 59.3769057,68.8171041 56.835573,70.0653313 L56.83784,70.0653313 Z" id="形状" fill="#004094"></path>
                <path d="M81.1753538,71.3785345 L72.4054054,71.3785345 L72.4054054,42.2095353 C72.4054054,41.0317335 72.827696,40.0241608 73.6517333,39.1960188 C74.4917492,38.3471734 75.4915507,37.930802 76.6648337,37.930802 L81.1753538,37.930802 L81.1753538,71.3785345 Z M81.1753538,35.0392064 L72.4054054,35.0392064 L72.4054054,32.4029546 C72.4054054,31.2251527 72.827696,30.2221809 73.6517333,29.3825369 C74.4917492,28.5405927 75.4915507,28.1173201 76.6648337,28.1173201 L81.1753538,28.1173201 L81.1753538,35.036906 L81.1753538,35.0392064 Z M95.6039961,54.3970241 C95.6039961,57.7602005 96.2225948,60.3067369 97.4757706,62.0665386 C98.7266638,63.8286406 100.527676,64.7096916 102.867394,64.7096916 C105.120372,64.7096916 106.878014,63.8286406 108.133472,62.0642382 C109.299907,60.3067369 109.886549,57.7602005 109.886549,54.3970241 C109.886549,51.3881084 109.258819,48.9910976 108.005644,47.2266952 C106.665727,45.5635102 104.873845,44.7192655 102.620868,44.7192655 C100.445501,44.7192655 98.7266638,45.6026169 97.4780533,47.3647189 C96.2225948,49.0371055 95.6039961,51.3881084 95.6039961,54.3970241 L95.6039961,54.3970241 Z M109.886549,28 L114.143694,28 C115.312412,28 116.319062,28.4393753 117.154512,29.3158255 C117.989963,30.2014773 118.405405,31.1929472 118.405405,32.2787333 L118.405405,56.7986357 C118.405405,62.7382537 116.695699,66.7616432 113.269439,68.8619032 C109.912306,70.9296096 106.050838,72.0159751 102.116402,71.9998225 C99.9417911,72.0006147 97.7820545,71.638379 95.7249767,70.9276572 C93.6363502,70.2214362 91.9608838,69.0620375 90.7077079,67.4770658 C88.2880969,64.3715336 87.0782915,60.1457093 87.0782915,54.7765892 C87.0782915,49.5017851 88.2880969,45.2736605 90.7077079,42.0784129 C93.2186249,38.8072522 96.437164,37.1785731 100.363325,37.1785731 C102.447386,37.1785731 104.287204,37.5995452 105.875929,38.4299876 C107.500832,39.3926319 108.87547,40.7306468 109.886549,42.3337566 L109.886549,28.0023004 L109.886549,28 Z" id="形状" fill="#FEFEFE"></path>
                <path d="M132.265473,83.6360846 L132.265473,76.6656447 L134.693177,76.6656447 C136.400958,76.6656447 137.742951,76.2643515 138.728478,75.4594454 C139.702355,74.6614982 139.898063,73.3717929 139.301621,71.5996078 L127.405405,38 L137.256013,38 L144.159359,61.8363528 L150.170373,41.0410139 C150.68294,39.0229497 152.043573,38.0023196 154.26392,38.0023196 L160.405405,38.0023196 L147.362903,76.4081675 C146.333109,79.1986631 145.033053,81.1540976 143.52098,82.3695753 C140.170655,85.0301725 132.524087,83.6337649 132.265473,83.6337649" id="路径" fill="#004094"></path>
            </g>
        </g>
    </g>
</svg>