<?xml version="1.0" encoding="UTF-8"?>
<svg width="241px" height="60px" viewBox="0 0 241 60" version="1.1" xmlns="http://www.w3.org/2000/svg" xmlns:xlink="http://www.w3.org/1999/xlink">
    <!-- Generator: Sketch 56.2 (81672) - https://sketch.com -->
    <title>paypay</title>
    <desc>Created with Sketch.</desc>
    <g id="页面1" stroke="none" stroke-width="1" fill="none" fill-rule="evenodd">
        <g id="logo-svg" transform="translate(-2759.000000, -1498.000000)" fill-rule="nonzero">
            <g id="paypay" transform="translate(2759.000000, 1497.486989)">
                <g id="图层_1-2" transform="translate(0.000000, 0.513011)">
                    <path d="M52.5,59.920904 L15.0789474,59.920904 C15.112782,59.8418079 15.1466165,59.7627119 15.1804511,59.6836158 C15.981203,56.3502825 16.7593985,53.0169492 17.5827068,49.6949153 C17.8984962,48.4067797 17.5488722,48.6440678 18.924812,48.519774 C23.8646617,48.0903955 29.018797,47.4576271 33.8120301,46.1242938 C37.5112782,45.0960452 41.0413534,43.7062147 44.075188,41.2768362 C47.6729323,38.3954802 49.7819549,34.6553672 50.1315789,30.0451977 C50.4135338,26.2937853 48.8120301,23.1638418 46.3308271,20.4745763 C43.3984962,17.2768362 39.7330827,15.1638418 35.7744361,13.5254237 C28.2293233,10.3841808 20.2894737,9.05084746 12.1917293,8.58757062 C8.17669173,8.36158192 4.15037594,8.40677966 0.112781955,8.33898305 L0.112781955,7.43502825 C0.112781955,3.33333333 3.43984962,0 7.53383459,0 C7.53383459,0 7.53383459,0 7.53383459,0 L52.4774436,0.0225988701 C56.5714286,0.0225988701 59.8984962,3.3559322 59.8984962,7.45762712 L59.9210526,52.4858757 C59.9210526,56.5875706 56.6052632,59.920904 52.5112782,59.9322034 C52.5112782,59.920904 52.5,59.920904 52.5,59.920904 Z" id="路径" fill="#FD0334"></path>
                    <path d="M0.112781955,8.33898305 C4.13909774,8.4180791 8.17669173,8.36158192 12.1917293,8.59887006 C20.2894737,9.07344633 28.2293233,10.4067797 35.7744361,13.5367232 C39.7218045,15.1751412 43.3984962,17.2881356 46.3308271,20.4858757 C48.8120301,23.1864407 50.4135338,26.3050847 50.1315789,30.0564972 C49.7819549,34.6553672 47.6842105,38.4067797 44.075188,41.2881356 C41.0413534,43.7175141 37.5112782,45.1073446 33.8120301,46.1355932 C29.018797,47.4689266 23.8646617,48.1016949 18.924812,48.5310734 C17.5488722,48.6553672 17.8984962,48.4067797 17.5827068,49.7062147 C16.7593985,53.0169492 15.981203,56.3502825 15.1804511,59.6836158 C15.1578947,59.7627119 15.1240602,59.8418079 15.0789474,59.920904 L11.6842105,59.920904 C11.7293233,59.6497175 11.7631579,59.3672316 11.8308271,59.0960452 C14.8421053,46.6892655 17.8533835,34.2824859 20.8646617,21.8757062 C21.1466165,20.7231638 21.406015,19.5706215 21.6992481,18.3389831 C14.4360902,17.6384181 7.26315789,17.7740113 0.101503759,18.4971751 L0.112781955,8.33898305 Z M19.2518797,41.9435028 C19.5676692,41.9887006 19.8834586,42.0225989 20.1879699,42.0225989 C22.4323308,41.9548023 24.6879699,41.9435028 26.9323308,41.7740113 C30.9586466,41.4689266 34.906015,40.6779661 38.7067669,39.2768362 C41.0977444,38.3954802 43.3759398,37.2881356 45.2255639,35.480226 C47.6616541,33.0847458 47.8308271,30.2146893 45.6992481,27.559322 C44.3571429,25.8870056 42.5977444,24.7344633 40.7142857,23.7740113 C35.9210526,21.3107345 30.7443609,20.1016949 25.4661654,19.299435 C24.5413534,19.1638418 24.5413534,19.1751412 24.3383459,20.0564972 C23.1315789,25.220339 21.9360902,30.3954802 20.7293233,35.5706215 C20.2443609,37.6610169 19.7593985,39.7627119 19.2518797,41.9435028 Z" id="形状" fill="#FFFFFF"></path>
                    <path d="M0.112781955,18.4971751 C7.27443609,17.7627119 14.4473684,17.6384181 21.7105263,18.3389831 C21.4172932,19.5706215 21.1466165,20.7231638 20.8759398,21.8757062 C17.8646617,34.2824859 14.8533835,46.6892655 11.8421053,59.0847458 C11.7744361,59.3559322 11.7406015,59.6384181 11.6954887,59.9096332 L7.53383459,59.9096332 C3.43984962,59.920904 0.112781955,56.5875706 0.112781955,52.4858757 L0.112781955,18.4971751 Z" id="路径" fill="#FD0334"></path>
                    <path d="M19.2518797,41.9435028 C19.7593985,39.7627119 20.2556391,37.6610169 20.7406015,35.559322 C21.9473684,30.3841808 23.1428571,25.220339 24.3496241,20.0451977 C24.4511278,19.6045198 24.5526316,19.1299435 24.5526316,19.1299435 C24.5526316,19.1299435 25.0150376,19.220339 25.4774436,19.2881356 C30.7556391,20.0903955 35.9210526,21.3107345 40.7255639,23.7627119 C42.6090226,24.7231638 44.3684211,25.8757062 45.7105263,27.5480226 C47.8421053,30.1920904 47.6729323,33.0621469 45.2368421,35.4576271 C43.387218,37.2768362 41.1090226,38.3728814 38.7180451,39.2542373 C34.9172932,40.6553672 30.9699248,41.4463277 26.943609,41.7514124 C24.6992481,41.920904 22.443609,41.9322034 20.1992481,42 C19.8721805,42.0225989 19.556391,41.9887006 19.2518797,41.9435028 Z" id="路径" fill="#FD0334"></path>
                </g>
                <g id="编组" transform="translate(73.000000, 10.513011)" fill="#000000">
                    <path d="M93.9169811,35.6712846 C93.7811321,35.6712846 93.6792453,35.6712846 93.5773585,35.6712846 C91.290566,35.6712846 89.0037736,35.6712846 86.7169811,35.6712846 C86.4566038,35.6712846 86.3660377,35.6146096 86.3660377,35.3312343 C86.3773585,24.1775819 86.3773585,13.0352645 86.3773585,1.88161209 C86.3773585,0.87279597 87.1245283,0.113350126 88.1660377,0.113350126 C89.7169811,0.102015113 91.2566038,0.113350126 92.8075472,0.113350126 C95.0603774,0.113350126 97.3245283,0.0793450882 99.5773585,0.136020151 C102.45283,0.204030227 105.215094,0.782115869 107.728302,2.26700252 C110.728302,4.0465995 112.426415,6.68765743 112.732075,10.1788413 C113.230189,15.9823678 109.981132,20.4256927 104.966038,22.4319899 C102.962264,23.2367758 100.879245,23.5768262 98.7283019,23.5768262 C97.3018868,23.5768262 95.8754717,23.5768262 94.4377358,23.5768262 C93.8264151,23.5768262 93.9169811,23.4974811 93.9169811,24.0869018 C93.9169811,27.8161209 93.9169811,31.5453401 93.9169811,35.2745592 C93.9169811,35.3765743 93.9169811,35.5012594 93.9169811,35.6712846 Z M93.9283019,19.9382872 C94.0301887,19.9496222 94.109434,19.9496222 94.1886792,19.9609572 C95.7509434,19.9609572 97.3245283,19.9722922 98.8867925,19.9609572 C99.2150943,19.9609572 99.5433962,19.9382872 99.8603774,19.8702771 C101.750943,19.5188917 103.267925,18.5327456 104.501887,17.081864 C106.120755,15.1889169 106.867925,12.9899244 106.618868,10.5188917 C106.188679,6.32493703 102.611321,3.88790932 99.3056604,3.75188917 C97.5735849,3.67254408 95.8415094,3.71788413 94.109434,3.71788413 C94.0528302,3.71788413 93.9962264,3.72921914 93.9283019,3.74055416 C93.9283019,9.14735516 93.9283019,14.5314861 93.9283019,19.9382872 Z" id="形状"></path>
                    <path d="M0.0339622642,35.6712846 C0.0339622642,35.4899244 0.0339622642,35.3652393 0.0339622642,35.2405542 C0.0339622642,24.1322418 0.0339622642,13.0239295 0.0339622642,1.90428212 C0.0339622642,0.895465995 0.758490566,0.113350126 1.76603774,0.113350126 C5.66037736,0.102015113 9.55471698,0.0680100756 13.4490566,0.136020151 C16.2226415,0.181360202 18.8943396,0.793450882 21.3169811,2.22166247 C24.4415094,4.05793451 26.1622642,6.78967254 26.4113208,10.4282116 C26.7849057,15.9030227 23.8075472,20.1876574 19.0188679,22.2619647 C16.9018868,23.1801008 14.6716981,23.5768262 12.3622642,23.5654912 C10.8792453,23.5654912 9.40754717,23.5768262 7.9245283,23.5541562 C7.60754717,23.5541562 7.5509434,23.6561713 7.5509434,23.9395466 C7.56226415,27.7141058 7.56226415,31.47733 7.5509434,35.2518892 C7.5509434,35.6712846 7.5509434,35.6712846 7.13207547,35.6712846 C4.89056604,35.6712846 2.63773585,35.6712846 0.396226415,35.6712846 C0.294339623,35.6712846 0.19245283,35.6712846 0.0339622642,35.6712846 Z M7.58490566,3.74055416 C7.57358491,3.83123426 7.56226415,3.92191436 7.56226415,4.00125945 C7.56226415,9.21536524 7.56226415,14.440806 7.56226415,19.6549118 C7.56226415,19.8929471 7.63018868,19.9609572 7.86792453,19.9609572 C9.41886792,19.9496222 10.9584906,19.9609572 12.509434,19.9609572 C13.5056604,19.9609572 14.4566038,19.7455919 15.3283019,19.2808564 C18.2830189,17.7506297 19.9698113,15.313602 20.2981132,12.0037783 C20.4792453,10.2468514 20.0716981,8.56926952 19.0415094,7.11838791 C17.5358491,4.99874055 15.4528302,3.85390428 12.8603774,3.74055416 C11.1735849,3.66120907 9.4754717,3.71788413 7.77735849,3.70654912 C7.72075472,3.71788413 7.66415094,3.72921914 7.58490566,3.74055416 Z" id="形状"></path>
                    <path d="M129.713208,35.6372796 C129.713208,35.1838791 129.713208,34.7644836 129.713208,34.2657431 C129.554717,34.3564232 129.441509,34.4130982 129.328302,34.4811083 C126.769811,36.011335 124.018868,36.4760705 121.109434,35.8639798 C117.498113,35.093199 115.075472,32.4521411 114.566038,28.779597 C114.271698,26.6712846 114.430189,24.5969773 115.369811,22.6586902 C116.422642,20.4937028 118.166038,19.1108312 120.396226,18.2947103 C121.686792,17.8186398 123.022642,17.6372796 124.403774,17.6712846 C126.124528,17.7166247 127.822642,17.8979849 129.498113,18.2947103 C129.532075,18.3060453 129.577358,18.3060453 129.633962,18.3173804 C129.645283,18.2380353 129.667925,18.1586902 129.667925,18.0906801 C129.735849,17.059194 129.758491,16.0277078 129.543396,14.9962217 C129.203774,13.2959698 128.173585,12.2644836 126.532075,11.8224181 C125.241509,11.4823678 123.939623,11.5050378 122.626415,11.5843829 C120.962264,11.675063 119.320755,11.9244332 117.713208,12.5251889 C117.486792,11.8337531 117.260377,11.1536524 117.022642,10.4395466 C117.260377,10.3488665 117.475472,10.2581864 117.701887,10.1788413 C119.762264,9.48740554 121.901887,9.19269521 124.064151,9.0906801 C126.396226,8.97732997 128.716981,9.07934509 130.981132,9.71410579 C132.090566,10.0201511 133.143396,10.4508816 134.10566,11.0856423 C136.177358,12.4458438 137.241509,14.372796 137.25283,16.8438287 C137.275472,23.0100756 137.264151,29.1763224 137.264151,35.3425693 C137.264151,35.5579345 137.230189,35.6599496 136.981132,35.6599496 C134.660377,35.6486146 132.328302,35.6599496 130.007547,35.6486146 C129.916981,35.6712846 129.837736,35.6486146 129.713208,35.6372796 Z M129.724528,26.5919395 C129.724528,25.209068 129.701887,23.8261965 129.735849,22.4546599 C129.74717,22.0012594 129.566038,21.7972292 129.192453,21.6498741 C127.641509,21.0491184 126.067925,20.9130982 124.471698,21.4231738 C122.784906,21.9559194 121.50566,22.9874055 120.781132,24.6309824 C120.260377,25.8211587 120.237736,27.0680101 120.486792,28.3148615 C120.826415,29.9471033 121.65283,31.2619647 123.124528,32.1007557 C125.275472,33.324937 127.766038,32.9962217 129.566038,31.3073048 C129.667925,31.2166247 129.713208,31.0352645 129.713208,30.8992443 C129.724528,29.4596977 129.724528,28.0201511 129.724528,26.5919395 Z" id="形状"></path>
                    <path d="M43.3811321,35.6486146 C43.3811321,35.1952141 43.3811321,34.7644836 43.3811321,34.2770781 C43.2226415,34.3677582 43.1207547,34.4130982 43.0075472,34.4811083 C40.4264151,36.034005 37.6528302,36.4987406 34.709434,35.8639798 C31.0641509,35.070529 28.5509434,32.2141058 28.1773585,28.4962217 C27.9735849,26.5239295 28.1207547,24.5969773 28.9698113,22.7720403 C29.9660377,20.6297229 31.6528302,19.2355164 33.8264151,18.3853904 C35.2188679,17.8413098 36.6566038,17.6372796 38.1396226,17.6826196 C39.8377358,17.7392947 41.5245283,17.9206549 43.1773585,18.3173804 C43.2,18.3287154 43.2339623,18.3173804 43.3018868,18.3287154 C43.3132075,18.0906801 43.3358491,17.8413098 43.3471698,17.6032746 C43.4150943,16.7418136 43.3698113,15.8916877 43.2,15.0415617 C42.8716981,13.3299748 41.8528302,12.2758186 40.1886792,11.8337531 C38.8981132,11.4937028 37.5962264,11.5163728 36.2830189,11.5957179 C34.6301887,11.686398 33.0113208,11.9244332 31.4490566,12.5025189 C31.4377358,12.5138539 31.4150943,12.5025189 31.3471698,12.5025189 C31.1320755,11.8337531 30.9056604,11.1649874 30.6679245,10.4395466 C31.0754717,10.2921914 31.4603774,10.1448363 31.8566038,10.0314861 C34.7660377,9.17002519 37.7433962,8.96599496 40.754717,9.11335013 C42.6113208,9.20403023 44.4339623,9.5440806 46.1660377,10.2695214 C47.0830189,10.6549118 47.9320755,11.1423174 48.6792453,11.8110831 C50.1509434,13.1146096 50.8867925,14.7695214 50.8981132,16.7304786 C50.9207547,22.9534005 50.909434,29.1763224 50.909434,35.4105793 C50.909434,35.6032746 50.8754717,35.6939547 50.6490566,35.6939547 C48.2943396,35.6826196 45.9396226,35.6939547 43.5849057,35.6939547 C43.5283019,35.6712846 43.4830189,35.6599496 43.3811321,35.6486146 Z M43.3811321,26.5692695 C43.3811321,25.197733 43.3584906,23.8261965 43.3924528,22.4546599 C43.4037736,22.0125945 43.2339623,21.8085642 42.8716981,21.6612091 C41.2754717,21.0377834 39.645283,20.9017632 38.0150943,21.4571788 C36.3509434,22.0125945 35.0830189,23.0667506 34.3924528,24.7216625 C33.8603774,26.0025189 33.8716981,27.3173804 34.2113208,28.6435768 C34.9584906,31.6133501 37.6075472,33.1889169 40.4603774,32.7695214 C41.5018868,32.6108312 42.3396226,32.0440806 43.1433962,31.3979849 C43.3245283,31.2619647 43.3924528,31.1032746 43.3924528,30.8765743 C43.3698113,29.4256927 43.3811321,27.9974811 43.3811321,26.5692695 Z" id="形状"></path>
                    <path d="M139.630189,9.04534005 C139.788679,9.04534005 139.890566,9.04534005 139.992453,9.04534005 C142.392453,9.04534005 144.781132,9.04534005 147.181132,9.03400504 C147.441509,9.03400504 147.554717,9.12468514 147.667925,9.34005038 C150.260377,14.5881612 152.85283,19.824937 155.445283,25.0617128 C155.501887,25.163728 155.54717,25.2657431 155.637736,25.4244332 C155.70566,25.2884131 155.750943,25.197733 155.796226,25.1070529 C158.10566,19.8476071 160.403774,14.5768262 162.701887,9.30604534 C162.792453,9.0906801 162.90566,9.01133501 163.132075,9.01133501 C164.626415,9.02267003 166.132075,9.01133501 167.626415,9.02267003 C167.716981,9.02267003 167.796226,9.03400504 167.920755,9.03400504 C167.875472,9.15869018 167.841509,9.26070529 167.796226,9.35138539 C163.460377,19.2468514 159.14717,29.1536524 154.788679,39.0377834 C153.928302,40.9987406 152.603774,42.6196474 150.701887,43.6964736 C149.54717,44.3539043 148.279245,44.7052897 146.954717,44.8073048 C145.890566,44.8866499 144.815094,44.8866499 143.739623,44.9206549 C143.660377,44.9206549 143.581132,44.9093199 143.490566,44.8979849 C143.490566,43.5377834 143.490566,42.2002519 143.490566,40.8060453 C143.626415,40.8060453 143.762264,40.8060453 143.898113,40.8060453 C144.837736,40.7607053 145.788679,40.7607053 146.728302,40.6473552 C147.781132,40.52267 148.641509,39.9785894 149.309434,39.1738035 C149.943396,38.4143577 150.475472,37.5869018 150.826415,36.6460957 C151.166038,35.7506297 151.516981,34.8664987 151.879245,33.9823678 C151.969811,33.7670025 151.958491,33.6083123 151.856604,33.4042821 C147.826415,25.4017632 143.807547,17.3879093 139.788679,9.37405542 C139.743396,9.30604534 139.698113,9.20403023 139.630189,9.04534005 Z" id="路径"></path>
                    <path d="M53.2981132,9.06801008 C53.445283,9.05667506 53.5471698,9.05667506 53.6490566,9.05667506 C56.0377358,9.05667506 58.4377358,9.05667506 60.8264151,9.04534005 C61.0754717,9.04534005 61.2113208,9.12468514 61.3132075,9.35138539 C63.8943396,14.5881612 66.4981132,19.836272 69.090566,25.0730479 C69.1471698,25.186398 69.2037736,25.2997481 69.2943396,25.4584383 C69.3622642,25.3110831 69.4075472,25.220403 69.4528302,25.1183879 C71.7509434,19.8702771 74.0490566,14.6335013 76.3358491,9.37405542 C76.4490566,9.12468514 76.5735849,9.04534005 76.8339623,9.04534005 C78.2943396,9.05667506 79.754717,9.05667506 81.2037736,9.05667506 C81.3056604,9.05667506 81.4188679,9.05667506 81.5773585,9.05667506 C81.5207547,9.19269521 81.4981132,9.29471033 81.4528302,9.38539043 C77.3320755,18.7934509 73.2226415,28.2015113 69.1018868,37.6095718 C68.5698113,38.8224181 68.0490566,40.0239295 67.2679245,41.1120907 C65.5924528,43.4130982 63.3283019,44.6372796 60.5207547,44.8639798 C59.5018868,44.9433249 58.4716981,44.9319899 57.4528302,44.97733 C57.2150943,44.988665 57.1245283,44.9206549 57.1245283,44.6712846 C57.1358491,43.4924433 57.1358491,42.324937 57.1245283,41.1460957 C57.1245283,40.8967254 57.2150943,40.8627204 57.4301887,40.8513854 C58.4377358,40.8173804 59.445283,40.8060453 60.4301887,40.6926952 C61.4716981,40.5680101 62.309434,40.0125945 62.9773585,39.2078086 C63.6113208,38.4483627 64.1320755,37.6209068 64.4830189,36.6801008 C64.8113208,35.7959698 65.1735849,34.9118388 65.5245283,34.0390428 C65.6150943,33.8350126 65.6037736,33.6649874 65.5018868,33.4496222 C61.8,26.081864 58.0981132,18.7254408 54.4075472,11.3576826 C54.0792453,10.7002519 53.7509434,10.0541562 53.4226415,9.39672544 C53.4,9.29471033 53.354717,9.20403023 53.2981132,9.06801008 Z" id="路径"></path>
                </g>
            </g>
        </g>
    </g>
</svg>