<?xml version="1.0" encoding="UTF-8"?>
<svg width="255px" height="62px" viewBox="0 0 255 62" version="1.1" xmlns="http://www.w3.org/2000/svg" xmlns:xlink="http://www.w3.org/1999/xlink">
    <!-- Generator: Sketch 56.2 (81672) - https://sketch.com -->
    <title>PayPal</title>
    <desc>Created with Sketch.</desc>
    <g id="页面1" stroke="none" stroke-width="1" fill="none" fill-rule="evenodd">
        <g id="logo-svg" transform="translate(-1000.000000, -1682.000000)" fill-rule="nonzero">
            <g id="PayPal" transform="translate(1000.000000, 1682.000000)">
                <path d="M95.7451734,14.0000004 L81.6500618,14.0000004 C80.6860133,13.9993963 79.8649805,14.6964734 79.7147921,15.6430925 L74.0140934,51.5718954 C73.9610547,51.9093029 74.0592501,52.2528817 74.2828252,52.5121693 C74.5064003,52.771457 74.8329487,52.9204678 75.1764918,52.9199694 L81.9056246,52.9199694 C82.8703408,52.9204144 83.6916173,52.2222609 83.8408944,51.2748276 L85.378393,41.5842741 C85.5275492,40.6376076 86.3476663,39.9396964 87.3116017,39.9391336 L91.7736454,39.9391336 C101.058406,39.9391336 106.41698,35.4728743 107.816393,26.6223053 C108.447056,22.7501814 107.843186,19.7077983 106.019209,17.5771057 C104.015927,15.2374414 100.46278,14.0000004 95.7451734,14.0000004 L95.7451734,14.0000004 Z M97.3712946,27.1221985 C96.6004843,32.1498134 92.7361278,32.1498134 88.9995527,32.1498134 L86.8726108,32.1498134 L88.3647677,22.7604251 C88.4550143,22.1929231 88.9471217,21.7749798 89.5251052,21.7749798 L90.4999535,21.7749798 C93.0452763,21.7749798 95.4463298,21.7749798 96.6870459,23.2172947 C97.4269414,24.0777667 97.6536503,25.3561822 97.3712946,27.1221985 L97.3712946,27.1221985 Z M137.877995,26.9603479 L131.128252,26.9603479 C130.550269,26.9603568 130.058161,27.3782912 129.967915,27.9457932 L129.669071,29.8224416 L129.197104,29.142259 C127.735862,27.0341026 124.477437,26.3293351 121.225195,26.3293351 C113.766471,26.3293351 107.395951,31.9449391 106.155235,39.8223553 C105.510145,43.751844 106.427285,47.5092383 108.669643,50.1295804 C110.726511,52.538902 113.669605,53.5427859 117.171227,53.5427859 C123.181074,53.5427859 126.513695,49.7013932 126.513695,49.7013932 L126.212791,51.5657491 C126.158527,51.9030877 126.255583,52.24713 126.478388,52.5072322 C126.701193,52.7673344 127.027401,52.9174101 127.371067,52.9179194 L133.450988,52.9179194 C134.415704,52.9183656 135.236981,52.2202121 135.386258,51.2727789 L139.03421,28.3084206 C139.08855,27.9718218 138.991677,27.6284653 138.769179,27.369047 C138.546681,27.1096287 138.220938,26.9602425 137.877995,26.9603479 L137.877995,26.9603479 Z M128.469575,40.0190346 C127.818302,43.8522324 124.757732,46.4254534 120.854216,46.4254534 C118.894215,46.4254534 117.327862,45.8005868 116.322099,44.6164135 C115.32458,43.4404351 114.945358,41.7666122 115.26275,39.9022563 C115.870742,36.1018383 118.982837,33.4446189 122.826584,33.4446189 C124.743305,33.4446189 126.301413,34.0776804 127.327786,35.2720975 C128.35622,36.478807 128.764296,38.1628736 128.469575,40.0190346 L128.469575,40.0190346 Z M173.825785,26.9603437 L167.043066,26.9603437 C166.393645,26.9613698 165.786622,27.2810961 165.421067,27.8146736 L156.066233,41.5125681 L152.100888,28.3493955 C151.850964,27.5250653 151.087366,26.9607638 150.221265,26.9603437 L143.556023,26.9603437 C143.176413,26.9593444 142.819712,27.1407459 142.59841,27.4473448 C142.377108,27.7539436 142.318485,28.147947 142.441027,28.5050999 L149.912116,50.2996261 L142.888262,60.1561278 C142.633787,60.5123898 142.600671,60.980064 142.802432,61.368249 C143.004194,61.756434 143.407075,61.9999982 143.846622,61.9999982 L150.621097,61.9999982 C151.263135,62.0008754 151.864722,61.6884697 152.23073,61.1641092 L174.790328,28.7939727 C175.03955,28.4370222 175.068803,27.9720417 174.866263,27.5870061 C174.663722,27.2019705 174.262881,26.9603437 173.825785,26.9603437 L173.825785,26.9603437 Z" id="形状" fill="#253B80"></path>
                <path d="M195.832458,14.0020723 L181.678927,14.0020723 C180.711808,14.0024809 179.888657,14.7073369 179.73799,15.6640763 L174.014501,52.0064242 C173.960626,52.3471278 174.058419,52.6943724 174.282115,52.956671 C174.50581,53.2189697 174.832973,53.3700135 175.177408,53.3700135 L182.440404,53.3700135 C183.117318,53.3690195 183.692973,52.8751142 183.797818,52.2053673 L185.422163,41.9038442 C185.571916,40.9462814 186.395312,40.2403372 187.363101,40.2397679 L191.840914,40.2397679 C201.164862,40.2397679 206.54279,35.7221013 207.949866,26.7696612 C208.58512,22.8529686 207.974697,19.7755673 206.143429,17.6203502 C204.134207,15.2537561 200.568924,14.0020723 195.832458,14.0020723 L195.832458,14.0020723 Z M197.46508,27.2753083 C196.693257,32.3607916 192.813452,32.3607916 189.059869,32.3607916 L186.926493,32.3607916 L188.426685,22.8633302 C188.515546,22.2891634 189.009437,21.8658239 189.589592,21.8665414 L190.568338,21.8665414 C193.121767,21.8665414 195.534489,21.8665414 196.780165,23.3254585 C197.523018,24.1958346 197.748564,25.4889649 197.46508,27.2753083 L197.46508,27.2753083 Z M238.13165,27.1115947 L231.359061,27.1115947 C230.778582,27.1099955 230.284197,27.5337593 230.196154,28.1083826 L229.896116,30.0066314 L229.420193,29.3186198 C227.953109,27.1861983 224.683726,26.4733188 221.418482,26.4733188 C213.92994,26.4733188 207.53602,32.1535592 206.290344,40.1216454 C205.644745,44.0963631 206.561413,47.8970055 208.812735,50.547508 C210.881965,52.9845612 213.832686,54 217.348307,54 C223.382181,54 226.728125,50.1143923 226.728125,50.1143923 L226.426018,52.0002072 C226.371423,52.3421438 226.469394,52.6908509 226.69402,52.9541042 C226.918646,53.2173575 227.247301,53.36864 227.593063,53.3679411 L233.695221,53.3679411 C234.66301,53.3673719 235.486406,52.6614277 235.636159,51.7038649 L239.300764,28.4751839 C239.353336,28.1336638 239.254218,27.7861929 239.029441,27.5240252 C238.804663,27.2618574 238.476688,27.1111911 238.13165,27.1115947 L238.13165,27.1115947 Z M228.685616,40.3205885 C228.035878,44.197907 224.958934,46.800746 221.039813,46.800746 C219.076114,46.800746 217.499361,46.1686872 216.489577,44.9708838 C215.48807,43.7813698 215.11147,42.088281 215.425993,40.2024661 C216.040554,36.3583048 219.160952,33.6705005 223.020066,33.6705005 C224.944449,33.6705005 226.508787,34.3108486 227.539263,35.5190136 C228.575947,36.7396125 228.985655,38.4430629 228.685616,40.3205885 L228.685616,40.3205885 Z M246.120945,14.9988602 L240.312618,52.0064242 C240.258743,52.3471278 240.356536,52.6943724 240.580232,52.956671 C240.803927,53.2189697 241.13109,53.3700135 241.475525,53.3700135 L247.314891,53.3700135 C248.285359,53.3700135 249.108913,52.6654233 249.257897,51.7059372 L254.985525,15.3656616 C255.039334,15.0247626 254.941581,14.6773464 254.717964,14.4147408 C254.494346,14.1521351 254.167234,14.0006108 253.822618,14 L247.283852,14 C246.703994,14.0020563 246.211323,14.4252282 246.120945,14.9988602 L246.120945,14.9988602 Z" id="形状" fill="#179BD7"></path>
                <path d="M14.6795793,60 L15.7483013,53.1505165 L13.3676873,53.0948465 L2,53.0948465 L9.89996028,2.55258642 C9.94857054,2.23340279 10.2215598,1.99830648 10.5416022,2 L29.7091209,2 C36.0724102,2 40.4637746,3.33609145 42.7565204,5.97320444 C43.8313727,7.21031764 44.515927,8.50310094 44.8469651,9.92578113 C45.1943509,11.4185644 45.2004812,13.2020693 44.8612693,15.3773267 L44.8367479,15.5360895 L44.8367479,16.9299037 L45.9116002,17.5443366 C46.7321602,17.9638006 47.4697286,18.5312196 48.0878697,19.2185632 C49.0074202,20.276295 49.6020628,21.6206246 49.8534066,23.2144388 C50.1129242,24.8536138 50.0270995,26.804129 49.6020628,29.012376 C49.1116359,31.5525818 48.318779,33.7649526 47.2480136,35.5752616 C46.3032631,37.1970065 45.0330084,38.6016077 43.5187256,39.6989723 C42.0964875,40.7175288 40.4065581,41.4907246 38.4959365,41.9855699 C36.6445749,42.4721677 34.5336957,42.7175285 32.218472,42.7175285 L30.7267568,42.7175285 C29.6600782,42.7175285 28.6240514,43.1051573 27.81076,43.8000026 C26.9986218,44.5022619 26.4598679,45.4725724 26.2904366,46.5381465 L26.1780471,47.1546412 L24.2899035,59.2268042 L24.2040787,59.6701031 C24.1816008,59.8103093 24.1427754,59.8804124 24.0855589,59.9278351 C24.0301324,59.9735716 23.9609827,59.9990096 23.8893881,60 L14.6795793,60 Z" id="路径" fill="#253B80"></path>
                <path d="M47.7836562,16 C47.7258886,16.365793 47.6598684,16.7397601 47.5855957,17.1239449 C45.0335037,30.1024434 36.3023369,34.5859618 25.1511185,34.5859618 L19.4733843,34.5859618 C18.1096553,34.5859618 16.9604918,35.5668592 16.7479894,36.8992448 L13.841039,55.1602843 L13.0178501,60.3365615 C12.9514865,60.7520875 13.0720716,61.1755659 13.3478588,61.4955065 C13.623646,61.8154471 14.0269988,62 14.4517256,62 L24.5218638,62 C25.714353,62 26.7273499,61.1417148 26.9150948,59.9768992 L27.014125,59.4701022 L28.9101416,47.552199 L29.0318663,46.8982674 C29.217548,45.7293647 30.2326081,44.8710795 31.4250973,44.8710795 L32.9311823,44.8710795 C42.6877247,44.8710795 50.3254325,40.94749 52.5577394,29.5936028 C53.4902742,24.8505553 53.0075017,20.8901821 50.5399981,18.1048423 C49.7579278,17.2432119 48.8238915,16.5299481 47.7836562,16 L47.7836562,16 Z" id="路径" fill="#179BD7"></path>
                <path d="M45.3333777,14.9135488 C44.5194321,14.678645 43.6914168,14.495305 42.8542844,14.3646256 C41.2001541,14.1110145 39.5283939,13.9893316 37.8548827,14.0007326 L22.7041813,14.0007326 C21.5128108,14 20.4987362,14.8657219 20.3157615,16.0401778 L17.0927342,36.4058471 L17,37 C17.2074713,35.6603695 18.363528,34.6720535 19.7222628,34.6727299 L25.393472,34.6727299 C36.5318753,34.6727299 45.253008,30.1600463 47.8021671,17.10513 C47.8784152,16.7186223 47.9422987,16.342394 48,15.9743892 C47.3273379,15.6224792 46.6262851,15.3274533 45.9042079,15.0924114 C45.7149027,15.0297475 45.5246014,14.970119 45.3333777,14.9135488 L45.3333777,14.9135488 Z" id="路径" fill="#222D65"></path>
                <path d="M19.9045915,15.7825196 C20.0868865,14.6109222 21.1069391,13.7473436 22.304178,13.751025 L37.5257136,13.751025 C39.3290266,13.751025 41.0122568,13.8678718 42.5484891,14.1138651 C43.5880494,14.2756308 44.6132541,14.5175772 45.6147424,14.8374953 C46.3704361,15.0855386 47.0722996,15.3786806 47.7203329,15.7169214 C48.4822378,10.9057026 47.7141217,7.62989191 45.0867919,4.66362281 C42.1903109,1.39806187 36.9625665,0 30.2731239,0 L10.8528296,0 C9.48636965,0 8.32073792,0.983973164 8.10955774,2.32258666 L0.0205289666,53.0894521 C-0.0557203975,53.5664479 0.0826190292,54.0525971 0.399156952,54.4200177 C0.715694875,54.7874384 1.17874151,54.9993467 1.66649208,55 L13.6561429,55 L16.6664955,36.0892657 L19.9045915,15.7825196 Z" id="路径" fill="#253B80"></path>
            </g>
        </g>
    </g>
</svg>