<?xml version="1.0" encoding="UTF-8"?>
<svg width="136px" height="85px" viewBox="0 0 136 85" version="1.1" xmlns="http://www.w3.org/2000/svg" xmlns:xlink="http://www.w3.org/1999/xlink">
    <!-- Generator: Sketch 56.2 (81672) - https://sketch.com -->
    <title>UnionPay</title>
    <desc>Created with Sketch.</desc>
    <g id="页面1" stroke="none" stroke-width="1" fill="none" fill-rule="evenodd">
        <g id="logo-svg" transform="translate(-1081.000000, -1485.000000)" fill-rule="nonzero">
            <g id="UnionPay" transform="translate(1081.000000, 1485.000000)">
                <path d="M26.4790992,0 L60.227137,0 C64.9380595,0 67.8680931,3.85897686 66.769125,8.60912274 L51.0570018,76.4041044 C49.9481625,81.1377164 45.2314821,85 40.5172695,85 L6.77252199,85 C2.06818032,85 -0.868434459,81.1377164 0.230533983,76.4041044 L15.9492375,8.60912274 C17.048206,3.85897686 21.7624187,0 26.4790992,0" id="路径" fill="#E21836"></path>
                <path d="M57.3939951,0 L96.0817333,0 C100.777069,0 98.6598222,3.85897686 97.5552781,8.60912274 L81.8948625,76.4041044 C80.7960585,81.1377164 81.1388195,85 76.4336426,85 L37.7459053,85 C33.0407284,85 30.128898,81.1377164 31.2342621,76.4041044 L46.8938577,8.60912274 C48.0057816,3.85897686 52.6953784,0 57.3939951,0" id="路径" fill="#00447C"></path>
                <path d="M95.4765229,0 L129.225993,0 C133.943697,0 136.873856,3.85897686 135.765792,8.60912274 L120.05547,76.4041044 C118.946583,81.1377164 114.226411,85 109.509531,85 L75.7756899,85 C71.0555186,85 68.1278281,81.1377164 69.2334241,76.4041044 L84.9462138,8.60912274 C86.0452296,3.85897686 90.7563517,0 95.4765229,0" id="路径" fill="#007B84"></path>
                <path d="M35.1578389,21.1200973 C31.6776278,21.1557615 30.6498148,21.1200973 30.3215085,21.0421336 C30.1953003,21.6451082 27.8468381,32.5376342 27.8402389,32.5467576 C27.3345813,34.7504765 26.9666805,36.3213622 25.716972,37.3357199 C25.0075665,37.9254241 24.1793768,38.2099087 23.2192048,38.2099087 C21.6758355,38.2099087 20.7767052,37.4393951 20.6257503,35.9779902 L20.5968792,35.4762026 C20.5968792,35.4762026 21.0670665,32.5243637 21.0670665,32.5077757 C21.0670665,32.5077757 23.5318381,22.5815021 23.9731543,21.2693895 C23.9962513,21.1947434 24.0028504,21.1557615 24.0086246,21.1200973 C19.2110639,21.1623967 18.3606022,21.1200973 18.302035,21.0421336 C18.2698642,21.1491263 18.1510801,21.764542 18.1510801,21.764542 L15.6343405,32.9523347 L15.4182192,33.9011697 L15,37.0047888 C15,37.9254241 15.179826,38.6768616 15.5378283,39.312183 C16.6844255,41.3267986 19.9551147,41.6287005 21.8053432,41.6287005 C24.1892755,41.6287005 26.4255525,41.1194482 27.936751,40.1896895 C30.5599016,38.6312447 31.2462102,36.1952934 31.8582786,34.0305563 L32.1420407,32.919988 C32.1420407,32.919988 34.6810526,22.6105312 35.1124699,21.2693895 C35.1289679,21.1947434 35.1355668,21.1557615 35.1578389,21.1200973 Z M43.7966654,29.4368348 C43.1845968,29.4368348 42.0660459,29.5861269 41.0613298,30.0812795 C40.6967285,30.2695535 40.3519245,30.4868567 39.9881478,30.7033304 L40.316454,29.5114808 L40.1366281,29.3107657 C38.0059369,29.7445426 37.5291505,29.8026006 35.5609628,30.0812795 L35.3959847,30.1915897 C35.1674903,32.0967245 34.9645671,33.5291002 34.1174052,37.2738466 C33.7948732,38.6539702 33.4599677,40.0473643 33.1242374,41.4241701 L33.2149752,41.5991738 C35.2318317,41.4921811 35.8439001,41.4921811 37.5967914,41.52121 L37.7386726,41.3661121 C37.961393,40.2190503 37.990264,39.9503243 38.4835484,37.6271716 C38.7153425,36.5257267 39.198728,34.105534 39.4371214,33.2437863 C39.8751378,33.0397534 40.3073803,32.8390383 40.7198252,32.8390383 C41.7022695,32.8390383 41.5826604,33.7007862 41.5447154,34.0441584 C41.502646,34.6205921 41.1446436,36.503333 40.7775677,38.1198359 L40.5325753,39.1632225 C40.3618231,39.9337363 40.1745729,40.6826854 40.0038207,41.446564 L40.0780607,41.5991738 C42.0660459,41.4921811 42.6723403,41.4921811 44.3699639,41.52121 L44.5695873,41.3661121 C44.8764464,39.5746055 44.9663594,39.0952117 45.5107869,36.4867448 L45.7846503,35.2882602 C46.3167046,32.9427135 46.5839689,31.7533523 46.1814226,30.7846117 C45.7557793,29.6989254 44.7345655,29.4368348 43.7966654,29.4368348 Z M53.4472195,31.8926087 C52.3905352,32.0966415 51.7166,32.2326631 51.0467893,32.3205797 C50.3827527,32.4275726 49.7352139,32.5246126 48.7140001,32.6672694 L48.6331609,32.741086 L48.5589208,32.7999737 C48.4525101,33.5646817 48.3782698,34.2257142 48.2372137,35.0028633 C48.1176046,35.8065529 47.9336541,36.7197236 47.6342191,38.0318363 C47.4024249,39.0362411 47.2828159,39.3862485 47.1508333,39.7395735 C47.0221505,40.0928982 46.8802695,40.4362704 46.6196041,41.4240871 L46.6806461,41.5153214 L46.7317892,41.5990909 C47.686187,41.5534737 48.3106289,41.5211271 48.9523934,41.5153214 C49.593333,41.4920982 50.2573693,41.5153214 51.2851824,41.5211271 L51.3750956,41.4473104 L51.4716077,41.3660291 C51.6200878,40.4752523 51.6423599,40.2355553 51.7330977,39.800949 C51.8230107,39.3348255 51.9780902,38.6895516 52.3583645,36.9660558 C52.5381906,36.1565604 52.7386389,35.349553 52.925064,34.5234692 C53.1189134,33.7007032 53.3218361,32.8903784 53.5148603,32.0808829 L53.4859893,31.9830136 L53.4472195,31.8926087 Z M53.4697388,28.5814733 C52.5095669,28.0116748 50.8243165,28.1924841 49.6900924,28.979586 C48.5591684,29.750929 48.4304855,30.8457386 49.387358,31.4230017 C50.3310321,31.9770418 52.0228817,31.8119911 53.1472066,31.018254 C54.2756566,30.230323 54.4167126,29.1454661 53.4697388,28.5814733 Z M59.2765523,41.777661 C61.2191687,41.777661 63.2104534,41.2393795 64.7092787,39.6419528 C65.8624751,38.3464283 66.3912294,36.4188999 66.5743554,35.6251631 C67.1707511,32.9943025 66.7063377,31.7659591 66.1231403,31.0178394 C65.2372084,29.8774126 63.6715673,29.5116468 62.0473586,29.5116468 C61.0706886,29.5116468 58.7444985,29.6086867 56.9272661,31.2932006 C55.6222896,32.5082732 55.019295,34.1571229 54.6555185,35.7379614 C54.2884426,37.3486586 53.8660985,40.2482451 56.5181203,41.3272961 C57.3364113,41.6806211 58.5160044,41.777661 59.2765523,41.777661 Z M59.1247728,35.8582246 C59.5726884,33.8660031 60.1014427,32.1939301 61.4509629,32.1939301 C62.508472,32.1939301 62.5851866,33.4380321 62.1149995,35.4368888 C62.0308608,35.8806184 61.6448123,37.5302976 61.1226568,38.2328004 C60.7580553,38.751176 60.326638,39.0655191 59.8498513,39.0655191 C59.7079702,39.0655191 58.8641076,39.0655191 58.8509093,37.8056587 C58.8443104,37.1836079 58.9705184,36.5482865 59.1247728,35.8582246 Z M71.4304833,41.5214589 L71.5822628,41.366361 C71.7975592,40.2192991 71.8330296,39.9497436 72.3098162,37.6274205 C72.5482093,36.5259755 73.0414932,34.1057828 73.2732878,33.2440349 C73.7121292,33.039173 74.1369476,32.8384578 74.5625906,32.8384578 C75.5384354,32.8384578 75.4196515,33.7002057 75.3808821,34.0435777 C75.3454112,34.620841 74.9874095,36.5027523 74.6137337,38.1192551 L74.3819401,39.162642 C74.2045885,39.933985 74.0115642,40.6821049 73.840812,41.4468129 L73.9150523,41.5994227 C75.9096364,41.4924298 76.4928333,41.4924298 78.2003561,41.5214589 L78.4065787,41.366361 C78.7060137,39.574025 78.7868529,39.094631 79.3477782,36.4869936 L79.6150428,35.2876797 C80.1495714,32.942133 80.4201349,31.7536012 80.024188,30.7848606 C79.5861712,29.6991743 78.5583582,29.4370837 77.6336565,29.4370837 C77.020763,29.4370837 75.8964381,29.5855464 74.8974961,30.0815284 C74.540319,30.2698024 74.1823164,30.4862762 73.8309131,30.7035793 L74.1369476,29.5117297 L73.9727943,29.3101852 C71.8429285,29.7447915 71.356243,29.8028495 69.3905299,30.0815284 L69.2395749,30.1918386 C69.0011819,32.0969731 68.8073325,33.5285198 67.9601705,37.2740955 C67.6376388,38.6542191 67.3027334,40.0476129 66.9678279,41.424419 L67.0577409,41.5994227 C69.0778965,41.4924298 69.6808917,41.4924298 71.4304833,41.5214589 Z M86.0850677,41.5990079 C86.2104511,40.9835923 86.9553269,37.3358858 86.9619258,37.3358858 C86.9619258,37.3358858 87.5962663,34.6594081 87.6350367,34.5623682 C87.6350367,34.5623682 87.8346599,34.2836895 88.034283,34.1733791 L88.3279438,34.1733791 C91.09875,34.1733791 94.2275579,34.1733791 96.679956,32.3594786 C98.3487089,31.1153769 99.4895316,29.2782531 99.9984887,27.0455053 C100.130471,26.4981005 100.227808,25.8470205 100.227808,25.1959406 C100.227808,24.340828 100.057056,23.4948387 99.5637719,22.833806 C98.3132385,21.0746461 95.8228956,21.0422994 92.9481535,21.029029 C92.9390797,21.029029 91.5309919,21.0422994 91.5309919,21.0422994 C87.8511577,21.0879165 86.375429,21.0746461 85.7691349,21 C85.7179918,21.2695553 85.6214794,21.7489493 85.6214794,21.7489493 C85.6214794,21.7489493 84.3033051,27.8914946 84.3033051,27.9014473 C84.3033051,27.9014473 81.1489257,40.9611984 81.0004451,41.576614 C84.2133922,41.5376324 85.5307419,41.5376324 86.0850677,41.5990079 Z M88.5275675,30.6874059 C88.5275675,30.6874059 89.9290558,24.5573017 89.9224569,24.5805249 L89.9678252,24.2661819 L89.9876229,24.0264849 L90.5477231,24.084543 C90.5477231,24.084543 93.4381379,24.3341927 93.5057793,24.340828 C94.646602,24.7845576 95.1167892,25.9283019 94.7884832,27.4212239 C94.4890482,28.7855888 93.6088906,29.9326509 92.4779663,30.4866907 C91.5466651,30.9561318 90.4058419,30.9951137 89.2303739,30.9951137 L88.4698255,30.9951137 L88.5275675,30.6874059 Z M97.253585,35.9717698 C96.8832092,37.5592435 96.4575656,40.4588302 99.0963891,41.4922641 C99.9377767,41.8522241 100.691726,41.9592167 101.45805,41.9202351 C102.267267,41.8762767 103.017092,41.4682115 103.711649,40.8809954 C103.648958,41.1223511 103.586266,41.3637069 103.523575,41.605892 L103.643183,41.76099 C105.541255,41.6805381 106.130227,41.6805381 108.186678,41.6962967 L108.373103,41.5536396 C108.673363,39.7787211 108.9563,38.0552255 109.736647,34.659657 C110.11692,33.0332011 110.49637,31.4225042 110.886543,29.8026836 L110.825502,29.6243624 C108.702234,30.0199867 108.13471,30.1045858 106.092282,30.3957056 L105.937203,30.5226038 C105.91658,30.6876547 105.895133,30.8460702 105.875336,31.0044859 C105.557753,30.4885984 105.097465,30.0481865 104.387234,29.7736547 C103.47903,29.4145239 101.345865,29.8773296 99.5121337,31.5560376 C98.2236556,32.7545225 97.6049883,34.3967367 97.253585,35.9717698 Z M101.71294,36.0688097 C102.167455,34.1122522 102.68961,32.4567674 104.04243,32.4567674 C104.897841,32.4567674 105.348231,33.2505043 105.256668,34.6040871 C105.184078,34.9416534 105.105713,35.2974665 105.0125,35.6997261 C104.877219,36.2811364 104.730388,36.8575701 104.587683,37.4348334 C104.442501,37.8296284 104.2734,38.2020295 104.087799,38.4500205 C103.739695,38.9460023 102.911506,39.2537101 102.43472,39.2537101 C102.299437,39.2537101 101.464648,39.2537101 101.435777,38.0162436 C101.429178,37.3999987 101.555387,36.7655066 101.71294,36.0688097 Z M125,29.6085208 L124.835847,29.4202468 C122.734852,29.8482178 122.354577,29.9162286 120.424335,30.1783195 L120.282453,30.3209763 C120.275855,30.3441996 120.27008,30.379864 120.260182,30.4122106 L120.253582,30.379864 C118.816624,33.7132274 118.858693,32.9941365 117.688999,35.6183619 C117.6824,35.498928 117.6824,35.424282 117.675801,35.2973835 L117.382965,29.6085208 L117.199014,29.4202468 C114.998208,29.8482178 114.94624,29.9162286 112.91371,30.1783195 L112.755332,30.3209763 C112.733059,30.3889874 112.733059,30.4636334 112.719862,30.5449147 L112.733059,30.5739438 C112.987126,31.8794214 112.926084,31.5883016 113.180975,33.6485341 C113.299759,34.659574 113.458138,35.6764199 113.576922,36.675019 C113.777371,38.3462624 113.889556,39.1690284 114.134548,41.719437 C112.76193,43.9969726 112.436924,44.8587205 111.11545,46.8575775 L111.124524,46.877483 L110.194048,48.3571346 C110.087637,48.5130622 109.991125,48.6200549 109.855843,48.6656721 C109.707363,48.7394887 109.514339,48.752759 109.246249,48.752759 L108.730693,48.752759 L107.96437,51.3156088 L110.593295,51.3612259 C112.136664,51.3545907 113.106735,50.6288646 113.62889,49.6534888 L115.28197,46.8053251 L115.255573,46.8053251 L115.429625,46.60461 C116.541577,44.1976878 125,29.6085208 125,29.6085208 Z M97.2535023,63.2676942 L96.1382506,63.2676942 L100.266001,49.5402754 L101.635318,49.5402754 L102.070035,48.1261464 L102.112105,49.6986911 C102.060961,50.6707492 102.82151,51.5324971 104.819394,51.3898403 L107.129911,51.3898403 L107.925105,48.7465385 L107.055671,48.7465385 C106.555788,48.7465385 106.323994,48.6196401 106.352865,48.3475967 L106.310795,46.7476816 L102.03209,46.7476816 L102.03209,46.7559756 C100.64875,46.7850047 96.5177002,46.8895093 95.6812617,47.1134477 C94.6691219,47.3755384 93.6025385,48.1468816 93.6025385,48.1468816 L94.0215826,46.7310936 L90.019216,46.7310936 L89.1852524,49.5402754 L85.0022348,63.477533 L84.1905428,63.477533 L83.3945239,66.1017586 L91.3662619,66.1017586 L91.0989973,66.9767765 L95.0271235,66.9767765 L95.2877892,66.1017586 L96.3898425,66.1017586 L97.2535023,63.2676942 Z M93.9828132,52.3295517 C93.3418738,52.5078729 92.1490824,53.0486425 92.1490824,53.0486425 L93.209891,49.5402754 L96.3898425,49.5402754 L95.6226946,52.0964899 C95.6226946,52.0964899 94.6402504,52.154548 93.9828132,52.3295517 Z M94.0438552,57.3416231 C94.0438552,57.3416231 93.0449132,57.4676922 92.3874755,57.6169842 C91.7399367,57.8143821 90.5256988,58.4364327 90.5256988,58.4364327 L91.6211527,54.7854088 L94.817602,54.7854088 L94.0438552,57.3416231 Z M92.2620926,63.3000411 L89.0722428,63.3000411 L89.9969445,60.2188159 L93.1768954,60.2188159 L92.2620926,63.3000411 Z M99.9439633,54.7854088 L104.541901,54.7854088 L103.881164,56.9368753 L99.2221853,56.9368753 L98.5226777,59.2890573 L102.599285,59.2890573 L99.5125466,63.659172 C99.2964251,63.9801506 99.1025757,64.0937783 98.8872798,64.1841829 C98.6711584,64.2944931 98.3873965,64.4238797 98.05909,64.4238797 L96.9281657,64.4238797 L96.1511189,67 L99.1091746,67 C100.64677,67 101.554974,66.2966676 102.22561,65.3735439 L104.342278,62.4606871 L104.796792,65.4183322 C104.893304,65.9723715 105.289252,66.2966676 105.557341,66.4227366 C105.853476,66.5720287 106.159511,66.828314 106.591753,66.8664663 C107.055341,66.8863718 107.390246,66.9021307 107.612967,66.9021307 L109.066423,66.9021307 L109.939157,64.019132 L109.365858,64.019132 C109.036727,64.019132 108.470028,63.963562 108.373516,63.8598869 C108.277003,63.7338178 108.277003,63.5397379 108.225035,63.2444712 L107.763922,60.2801912 L105.875748,60.2801912 L106.703938,59.2890573 L111.353843,59.2890573 L112.069023,56.9368753 L107.763922,56.9368753 L108.434557,54.7854088 L112.72646,54.7854088 L113.522479,52.1321543 L100.726784,52.1321543 L99.9439633,54.7854088 Z M61.1096235,63.8991179 L62.1828054,60.3094698 L66.593493,60.3094698 L67.3994103,57.6396273 L62.9845985,57.6396273 L63.658534,55.4301025 L67.9727088,55.4301025 L68.7720276,52.8448588 L57.9775157,52.8448588 L57.1946951,55.4301025 L59.6470932,55.4301025 L58.9929555,57.6396273 L56.533958,57.6396273 L55.718967,60.3550867 L58.17054,60.3550867 L56.7401806,65.1042378 C56.5471563,65.7329239 56.8309187,65.9726206 57.0107446,66.2645698 C57.1946951,66.5490544 57.3811205,66.7373283 57.8001646,66.844321 C58.232407,66.9413612 58.5285426,66.999419 58.9310889,66.999419 L63.9035265,66.999419 L64.7894583,64.0417745 L62.5853517,64.346165 C62.1597087,64.346165 60.9809407,64.2947423 61.1096235,63.8991179 Z M61.6155284,46.7149204 L60.4978024,48.746124 C60.2585843,49.1898534 60.0432879,49.4652148 59.849439,49.592113 C59.6786869,49.6991059 59.340482,49.7438935 58.850497,49.7438935 L58.2672996,49.7438935 L57.4877785,52.3424074 L59.4246206,52.3424074 C60.3559213,52.3424074 61.0711009,51.9990354 61.4126058,51.8273492 C61.7796817,51.6299518 61.8761936,51.7427504 62.1599559,51.4673892 L62.8140942,50.8975905 L68.8621879,50.8975905 L69.6648062,48.1920839 L65.2376207,48.1920839 L66.0105429,46.7149204 L61.6155284,46.7149204 Z M70.5444687,63.9512871 C70.4413573,63.8019945 70.5155977,63.5390747 70.6731515,62.9916699 L72.3262312,57.490252 L78.2068727,57.490252 C79.0639336,57.4778111 79.6826009,57.4678581 80.0851472,57.4388292 C80.5173896,57.3932118 80.9875774,57.2381138 81.4998339,56.9594352 C82.0285887,56.667486 82.2991522,56.3597779 82.5276469,56.0064529 C82.7825377,55.6539576 83.1916835,54.8826144 83.5430867,53.6932535 L85.6209849,46.7312595 L79.5184481,46.7669239 C79.5184481,46.7669239 77.6393485,47.0456026 76.8119838,47.3533104 C75.977195,47.6966826 74.7844036,48.6554704 74.7844036,48.6554704 L75.3354306,46.7470181 L71.5656822,46.7470181 L66.2880359,64.3460824 C66.1007859,65.0295082 65.9754025,65.5254903 65.9463566,65.8232453 C65.9366327,66.1442239 66.3490779,66.4618845 66.6163424,66.7015812 C66.9322752,66.9412785 67.3991625,66.9022966 67.8470781,66.9412785 C68.3180904,66.9769429 68.9879013,66.9993363 69.9126025,66.9993363 L72.8096168,66.9993363 L73.6988481,63.980316 L71.1053939,64.2266483 C70.828231,64.2266483 70.6277827,64.0773556 70.5444687,63.9512871 Z M73.3928141,53.7745342 L79.5695912,53.7745342 L79.1769438,55.012001 C79.1216761,55.0410299 78.9896933,54.9506252 78.3611271,55.0252715 L73.0125399,55.0252715 L73.3928141,53.7745342 Z M74.6301492,49.624211 L80.858894,49.624211 L80.4109789,51.1146448 C80.4109789,51.1146448 77.4751953,51.0856159 77.0050081,51.1727028 C74.9361832,51.532663 73.7277196,52.6440607 73.7277196,52.6440607 L74.6301492,49.624211 Z M79.3151949,59.1559381 C79.2640518,59.3408946 79.1832126,59.4536932 79.070203,59.5382919 C78.9448191,59.6195732 78.7418964,59.6486021 78.439162,59.6486021 L77.5590039,59.6486021 L77.6109721,58.1415806 L73.9501099,58.1415806 L73.8016298,65.5091514 C73.7958555,66.0407974 73.8469986,66.3485054 74.2338723,66.5948377 C74.6207454,66.9025452 75.8127117,66.9415271 77.4171227,66.9415271 L79.7111423,66.9415271 L80.5393322,64.1837684 L78.5422727,64.2940786 L77.8782367,64.3330605 C77.7874986,64.2940786 77.7008851,64.2584142 77.6043732,64.1613745 C77.520234,64.0776048 77.3783534,64.1290281 77.40145,63.5973816 L77.4171227,61.7088354 L79.5115192,61.6217482 C80.6424435,61.6217482 81.125829,61.2518347 81.5382737,60.8993394 C81.9317463,60.5617733 82.0604291,60.1736136 82.2089097,59.6486021 L82.560313,57.9765296 L79.6822708,57.9765296 L79.3151949,59.1559381 Z" id="形状" fill="#FEFEFE"></path>
            </g>
        </g>
    </g>
</svg>