<?xml version="1.0" encoding="UTF-8"?>
<svg width="196px" height="64px" viewBox="0 0 196 64" version="1.1" xmlns="http://www.w3.org/2000/svg" xmlns:xlink="http://www.w3.org/1999/xlink">
    <!-- Generator: Sketch 56.2 (81672) - https://sketch.com -->
    <title>VISA</title>
    <desc>Created with Sketch.</desc>
    <defs>
        <linearGradient x1="0%" y1="49.9996731%" x2="100.00004%" y2="49.9996731%" id="linearGradient-1">
            <stop stop-color="#231F5D" offset="0%"></stop>
            <stop stop-color="#024DA1" offset="100%"></stop>
        </linearGradient>
    </defs>
    <g id="页面1" stroke="none" stroke-width="1" fill="none" fill-rule="evenodd">
        <g id="logo-svg" transform="translate(-1393.000000, -1681.000000)" fill="url(#linearGradient-1)">
            <path d="M1520.87974,1681 C1505.35571,1681.08594 1494.44957,1689.47553 1494.36154,1701.45913 L1494.36154,1701.45913 C1494.25833,1710.37585 1502.22525,1715.34408 1508.2289,1718.30737 L1508.2289,1718.30737 C1514.39571,1721.34125 1516.46522,1723.28788 1516.44246,1725.9995 L1516.44246,1725.9995 C1516.39541,1730.15439 1511.51948,1731.98516 1506.9623,1732.05652 L1506.9623,1732.05652 C1498.99993,1732.18235 1494.379,1729.88124 1490.6953,1728.14639 L1490.6953,1728.14639 L1487.82894,1741.71061 C1491.5263,1743.42781 1498.35714,1744.92481 1505.43994,1745 L1505.43994,1745 C1522.07956,1745 1532.96065,1736.69251 1533.01301,1723.81961 L1533.01301,1723.81961 C1533.08283,1707.48469 1510.67179,1706.58312 1510.82509,1699.28385 L1510.82509,1699.28385 C1510.87594,1697.06484 1512.96518,1694.70464 1517.54286,1694.09924 L1517.54286,1694.09924 C1519.80969,1693.80153 1526.06833,1693.56981 1533.15644,1696.86918 L1533.15644,1696.86918 L1535.93932,1683.74308 C1532.17367,1682.36195 1527.34783,1681.03299 1521.3495,1681 L1521.3495,1681 L1520.87974,1681 Z M1562.69733,1682.13176 C1559.65567,1682.13176 1557.09211,1683.91879 1555.95603,1686.67107 L1555.95603,1686.67107 L1532.1896,1744.03244 L1548.81859,1744.03244 L1552.12208,1734.78348 L1572.4378,1734.78348 L1574.35326,1744.03244 L1589,1744.03244 L1576.21408,1682.13176 L1562.69733,1682.13176 Z M1565.01804,1698.85647 L1569.8158,1722.09857 L1556.68002,1722.09857 L1565.01804,1698.85647 Z M1474.21278,1682.13176 L1461.11116,1744.03244 L1476.95013,1744.03244 L1490.04644,1682.13176 L1474.21278,1682.13176 Z M1450.78027,1682.13176 L1434.29623,1724.26158 L1427.62779,1688.44122 C1426.84688,1684.44131 1423.75589,1682.13176 1420.32339,1682.13176 L1420.32339,1682.13176 L1393.37338,1682.13176 L1393,1683.92646 C1398.53085,1685.14339 1404.81757,1687.10382 1408.62421,1689.19393 L1408.62421,1689.19393 C1410.95554,1690.47378 1411.62034,1691.59019 1412.38683,1694.63175 L1412.38683,1694.63175 L1425.0149,1744.03244 L1441.75544,1744.03244 L1467.41533,1682.13176 L1450.78027,1682.13176 Z" id="VISA"></path>
        </g>
    </g>
</svg>