<?xml version="1.0" encoding="UTF-8"?>
<svg width="231px" height="72px" viewBox="0 0 231 72" version="1.1" xmlns="http://www.w3.org/2000/svg" xmlns:xlink="http://www.w3.org/1999/xlink">
    <!-- Generator: Sketch 56.2 (81672) - https://sketch.com -->
    <title>wechatpay</title>
    <desc>Created with Sketch.</desc>
    <g id="页面1" stroke="none" stroke-width="1" fill="none" fill-rule="evenodd">
        <g id="logo-svg" transform="translate(-687.000000, -1491.000000)" fill-rule="nonzero">
            <g id="wechatpay" transform="translate(687.000000, 1491.000000)">
                <path d="M29.1042254,44.8659334 C27.8177796,45.5141204 26.25148,45.0114516 25.5774648,43.7340985 L25.4084507,43.3492747 L18.1183099,27.3451299 C18.038569,27.1671007 17.9963696,26.974421 17.9943662,26.7792125 C17.9943662,26.0416002 18.5896383,25.4436474 19.3239437,25.4436474 C19.6118775,25.4395287 19.893106,25.5310411 20.1239437,25.7039694 L28.7211268,31.8498326 C29.7716389,32.547001 31.0904055,32.6983959 32.2704225,32.2572932 L72.7098592,14.1479356 C65.4535211,5.65917424 53.5211268,0 40.0225352,0 C17.915493,0 0,14.9968117 0,33.5023115 C0,43.5982783 5.38591549,52.6755938 13.8253521,58.8554121 C14.5308128,59.3574164 14.9506863,60.1714216 14.9521127,61.0398533 C14.942696,61.3282647 14.8933976,61.6139595 14.8056338,61.8887295 C14.1295775,64.4127212 13.0591549,68.4533716 13.0028169,68.6797386 C12.8917129,68.9979632 12.8198165,69.3286559 12.7887324,69.6644349 C12.7887324,70.4020471 13.3840045,71 14.1183099,71 C14.3946271,70.9864098 14.6626224,70.9005773 14.8957746,70.7509963 L23.6619718,65.6464212 C24.3037607,65.25163 25.0390887,65.036682 25.7915493,65.023912 C26.173768,65.0304919 26.5531285,65.0914629 26.9183099,65.2050056 C31.1689668,66.4240936 35.5682169,67.0412385 39.9887324,67.038578 C62.1183099,66.9933046 80,51.9964929 80,33.5023115 C79.9888147,28.0022145 78.426087,22.6179194 75.4929577,17.9735374 L29.3971831,44.6961581 L29.1042254,44.8659334 Z" id="路径" fill="#09BB07"></path>
                <path d="M113.993046,56.1969112 C113.859527,56.6822945 113.714882,57.1566464 113.59249,57.6089355 C113.080668,59.4070601 112.635605,60.9183673 112.279555,62.539989 C111.945758,60.6536128 111.35605,58.4362934 110.732962,56.141754 L107.717663,45 L106.204451,45 L102.933241,56.2189741 C102.187761,58.6458908 101.531293,60.808053 101.175243,62.5620518 C100.841446,61.0397132 100.374131,59.1864313 99.8734353,57.2338665 L96.6912378,45 L95,45 L100.318498,65 L101.842837,65 L105.258693,53.5383343 C105.9235,51.5085561 106.484255,49.4467161 106.938804,47.3607281 C107.318753,49.4394544 107.805243,51.4976454 108.396384,53.5273028 L111.411683,65 L112.958275,65 L119,45 L117.297636,45 L113.993046,56.1969112 Z" id="路径" fill="#494949"></path>
                <path d="M130.519535,63.8492644 C129.355668,64.3756033 128.085874,64.6224726 126.810654,64.5703333 C123.499153,64.5703333 121.611597,62.3516597 121.567444,58.5022611 L131.976596,58.5022611 L131.976596,58.4024208 C132.007801,58.1111371 132.007801,57.8173284 131.976596,57.5260448 C131.972806,56.1188569 131.619977,54.7348212 130.950031,53.4991523 C130.025915,51.8973503 128.298658,50.937718 126.457427,51.0031445 C122.594009,51.0031445 120,54.1314742 120,58.7685019 C120,63.0949154 122.693354,65.9902843 126.689232,65.9902843 C128.239454,66.0610164 129.782966,65.7446769 131.181836,65.0695348 L131.270142,65.014068 L130.519535,63.8492644 Z M126.225622,52.4230956 C127.27313,52.3844067 128.289246,52.7864468 129.02936,53.5324324 C129.893501,54.5456524 130.34666,55.8485453 130.298769,57.1821504 L121.644712,57.1821504 C121.953786,54.9301967 123.32254,52.4230956 126.225622,52.4230956 Z" id="形状" fill="#494949"></path>
                <path d="M143.981536,64.5012742 C138.807976,64.5012742 135.717134,61.1333515 135.717134,55.6436373 C135.717134,49.8844894 138.896603,46.4492081 144.21418,46.4492081 C145.570231,46.4225853 146.915827,46.6945368 148.15805,47.2462832 L148.900295,45.9327933 L148.844904,45.9327933 C147.39063,45.2478943 145.793719,44.9319477 144.192024,45.0122277 C138.098966,45.0122277 134,49.2894897 134,55.6436373 C134,63.288822 139.129247,65.9943867 143.516248,65.9943867 C145.369654,66.0492884 147.213139,65.7009275 148.922452,64.9727834 L149,64.9727834 L148.324225,63.6368407 C146.951624,64.2275238 145.472635,64.5219239 143.981536,64.5012742 L143.981536,64.5012742 Z" id="路径" fill="#494949"></path>
                <path d="M158.682216,50.8795442 C157.595598,50.871844 156.530084,51.1726907 155.61516,51.7455236 C154.840919,52.1963204 154.192106,52.826346 153.725948,53.5800326 L153.725948,45 L152,45 L152,66 L153.737609,66 L153.737609,56.9983722 C153.715464,56.5203917 153.778602,56.0422911 153.924198,55.5854585 C154.565069,53.7397288 156.304108,52.4710139 158.297376,52.3950081 C161.795918,52.3950081 162.262391,55.4487249 162.262391,57.2718394 L162.262391,66 L164,66 L164,57.1237113 C163.988338,51.1758003 159.568513,50.8795442 158.682216,50.8795442 Z" id="路径" fill="#494949"></path>
                <path d="M185.150345,64.3609964 C184.74373,64.4439636 184.329248,64.4812657 183.914483,64.47222 C182.590345,64.47222 181.972414,63.5824309 181.972414,61.6693844 L181.972414,52.5824137 L186,52.5824137 L186,51.1809959 L181.972414,51.1809959 L181.972414,48 L180.328276,48 L180.328276,51.1809959 L178,51.1809959 L178,52.5824137 L180.372414,52.5824137 L180.372414,61.4135701 C180.253534,62.6420684 180.57447,63.8729156 181.277241,64.8837474 C181.890557,65.6330953 182.819564,66.0456091 183.782069,65.9959838 C184.469438,66.0144839 185.153178,65.8895218 185.790345,65.6289458 L185.867586,65.6289458 L185.150345,64.3609964 Z" id="路径" fill="#494949"></path>
                <path d="M197.275717,45.0191897 C195.874432,45.0214012 194.476096,45.1560535 193.097175,45.4215614 L193,45.4215614 L193,66 L194.608792,66 L194.608792,57.2627859 C195.342939,57.429633 196.093651,57.4991389 196.843826,57.4697199 C198.988786,57.6126132 201.089448,56.776475 202.620363,55.170453 C203.579357,54.0008061 204.071396,52.4786187 203.991616,50.9283056 C204.049746,49.3862104 203.497432,47.8889151 202.469201,46.8011216 C201.0184,45.5167252 199.157864,44.8783583 197.275717,45.0191897 Z M202.361229,51.0777579 C202.361229,54.2047609 200.385329,55.9981891 196.962596,55.9981891 C196.169616,56.0272278 195.376848,55.9342999 194.608792,55.722277 L194.608792,46.7206472 C195.471467,46.5612245 196.346259,46.4880956 197.221731,46.5022169 C200.504099,46.5022169 202.361229,48.1691853 202.361229,51.0777579 Z" id="形状" fill="#494949"></path>
                <path d="M228.163906,51.0335106 L224.593723,60.3494681 C224.265039,61.187234 223.993025,62.0026596 223.743679,62.7287234 C223.690788,62.9074468 223.634118,63.075 223.57367,63.231383 C223.278989,62.3042553 222.927637,61.2765957 222.598954,60.4388298 L218.802092,51.1117021 L218.802092,51.0335106 L217,51.0335106 L222.428945,64.437766 C222.522595,64.6197602 222.583929,64.8162168 222.610288,65.018617 C222.582215,65.2156878 222.524934,65.4076285 222.440279,65.5882979 C221.88273,66.903807 221.074817,68.1019648 220.060157,69.1180851 C219.342944,69.7895949 218.499866,70.3169708 217.57803,70.6707447 L217.476024,70.6707447 L218.258065,72 C219.141801,71.6501647 219.961203,71.1595866 220.683522,70.5478723 C222.564952,68.9281915 223.766347,66.437234 225.591107,61.8015957 L230,51 L228.163906,51.0335106 Z" id="路径" fill="#494949"></path>
                <path d="M177,65.5447096 C176.839823,64.4438657 176.770074,63.3327233 176.791394,62.2214706 L176.791394,56.6827388 C176.791394,52.9717885 174.983472,51 171.553057,51 C169.98695,51.0094397 168.455801,51.4435061 167.137556,52.2517534 L167.137556,52.2517534 L167.856089,53.3594997 C168.91261,52.6989816 170.151683,52.3556342 171.413986,52.3736055 L171.413986,52.3736055 C172.349403,52.3178279 173.268759,52.6253932 173.963619,53.2265702 C174.756243,54.103793 175.14118,55.2515998 175.029829,56.4058022 L175.029829,56.6827388 C171.402397,56.6827388 168.829585,57.3584641 167.357752,58.7542245 C166.457344,59.6023177 165.966193,60.7699519 166.001811,61.9777664 C165.985186,63.0932333 166.46086,64.1638061 167.31218,64.9269375 C168.1635,65.6900688 169.311722,66.0751734 170.475258,65.9878082 C172.323586,66.0089156 174.071545,65.1858762 175.180489,63.7723154 L175.377506,65.6665617 L177,65.6665617 L177,65.5447096 Z M175.064597,61.036182 C175.070123,61.3125526 175.018939,61.5872802 174.913937,61.8448368 C174.286368,63.5578113 172.557545,64.6744726 170.660685,64.5920477 C169.881256,64.6205947 169.126707,64.3269714 168.589773,63.7861787 C168.052839,63.2453859 167.785517,62.5097932 167.856089,61.7672945 C167.818526,60.9380725 168.151365,60.132653 168.771639,59.5518018 C169.814671,58.5769851 171.750074,58.0895767 174.566259,58.0895767 L175.134132,58.0895767 L175.064597,61.036182 Z" id="形状" fill="#494949"></path>
                <path d="M215,65.5447096 C214.836546,64.4441474 214.763149,63.3330107 214.780482,62.2214706 L214.780482,56.6827388 C214.780482,52.9717885 212.978121,51 209.558258,51 C208.07439,51 206.61782,51.3825467 205.341196,52.1077464 L206.034412,53.2154927 C207.052757,52.6299116 208.220692,52.326951 209.408061,52.3403731 L209.408061,52.3403731 C210.3406,52.2845955 211.257129,52.5921609 211.949851,53.1933378 C212.731186,54.0748139 213.110058,55.2204781 213.001228,56.3725698 L213.001228,56.6827388 C209.408061,56.6827388 206.820056,57.3584641 205.35275,58.7542245 C204.463258,59.6074981 203.975091,60.7716203 204.00098,61.9777664 C203.984406,63.0932333 204.458617,64.1638061 205.307318,64.9269375 C206.15602,65.6900688 207.30071,66.0751734 208.460666,65.9878082 C210.303309,66.0089156 212.045892,65.1858762 213.151425,63.7723154 L213.347836,65.6665617 L214.965339,65.6665617 L215,65.5447096 Z M213.058996,61.036182 C213.064506,61.3125526 213.013479,61.5872802 212.9088,61.8448368 C212.289552,63.5625242 210.561833,64.6819155 208.668631,64.5920477 C207.887664,64.6271816 207.129074,64.3364447 206.588558,63.79484 C206.048042,63.2532353 205.778531,62.5138016 205.849554,61.7672945 C205.816471,60.9387808 206.147613,60.1349952 206.762288,59.5518018 C207.802112,58.5769851 209.731562,58.0895767 212.539085,58.0895767 L213.105211,58.0895767 L213.058996,61.036182 Z" id="形状" fill="#494949"></path>
                <rect id="矩形" fill="#494949" x="143" y="14" width="19" height="2"></rect>
                <rect id="矩形" fill="#494949" x="143" y="20" width="19" height="2"></rect>
                <path d="M161,35 L161,25 L143,25 L143,35 L161,35 Z M144.83281,26.6538037 L159.16719,26.6538037 L159.16719,33.3351709 L144.83281,33.3351709 L144.83281,26.6538037 Z" id="形状" fill="#494949"></path>
                <path d="M138.163914,36 L138.163914,12.359646 C139.27418,9.97472147 140.22167,7.51870565 141,5.00814159 L139.284625,4 C137.729813,9.60678561 135.269851,14.9276219 132,19.7564602 L133.029225,21.500885 C134.104193,19.9150442 135.247776,18.1026549 136.311309,16.1090265 L136.311309,36 L138.163914,36 Z" id="路径" fill="#494949"></path>
                <path d="M206.171756,36 L206.171756,12.359646 C207.284569,9.97652389 208.229569,7.52017045 209,5.00814159 L207.293893,4 C205.737103,9.60678561 203.274011,14.9276219 200,19.7564602 L201.019084,21.500885 C202.09542,19.9150442 203.240458,18.1026549 204.316794,16.1090265 L204.316794,36 L206.171756,36 Z" id="路径" fill="#494949"></path>
                <path d="M164,9.23913043 L152.807122,9.23913043 L153.944609,8.58695652 L153.944609,8.58695652 L153.944609,8.58695652 C153.808111,8.2826087 153.45549,7.56521739 153.080119,6.80434783 C152.704748,6.04347826 152.363501,5.38043478 152.181503,5 L152.181503,5 L150.486647,5.94565217 L150.486647,5.94565217 C151.10089,7.0326087 151.624135,8.0326087 152.090504,9.01086957 C152.13978,9.10810832 152.177918,9.21014968 152.204253,9.31521739 L141,9.31521739 L141,11 L163.931751,11 L164,9.23913043 Z" id="路径" fill="#494949"></path>
                <polygon id="路径" fill="#494949" points="115 7.47502775 113.242483 7.47502775 113.242483 13.3351831 109.948594 13.3351831 109.948594 5 108.191077 5 108.191077 13.3351831 104.745878 13.3351831 104.745878 7.47502775 103 7.47502775 103 15 115 15"></polygon>
                <rect id="矩形" fill="#494949" x="104" y="18" width="10" height="2"></rect>
                <path d="M106.517241,26.3095468 L106.517241,24.7357763 L111.804598,24.7357763 L111.804598,28.6239151 C111.894415,29.470532 111.687019,30.3220923 111.218391,31.0308582 L111.218391,31.0308582 L112.275862,32.8823529 L112.275862,32.8823529 C113.206897,32.1301832 114.793103,30.7647059 117,28.8206365 L117,28.8206365 L116.16092,27.3625844 L116.16092,27.3625844 L113.517241,29.6769527 L113.517241,23 L104.655172,23 L104.655172,25.6383799 C104.908046,29.2487946 104.011494,31.8408872 102,33.3220829 L102,33.3220829 L102.965517,35 L102.965517,35 L102.965517,35 C105.50544,32.873745 106.835352,29.6196816 106.517241,26.3095468 Z" id="路径" fill="#494949"></path>
                <path d="M95,13.2438479 L96.0849478,15 C98.9040599,12.3434934 101.240039,9.27145573 103,5.90604027 L101.318927,5 C99.7587033,8.08239931 97.6180516,10.8751531 95,13.2438479 L95,13.2438479 Z" id="路径" fill="#494949"></path>
                <path d="M95,23.2974963 L95.9485714,24.9347079 L95.9485714,24.9911635 L95.9485714,24.9347079 C96.9542857,23.8055965 97.9485714,22.5297005 98.8971429,21.2650957 L98.8971429,36 L100.714286,36 L100.714286,18.4648994 C101.559703,17.002104 102.322767,15.4943297 103,13.9484536 L103,13.9484536 L101.342857,13 L101.342857,13.0564556 C99.8494178,16.7970208 97.723975,20.2599122 95.0571429,23.2974963 L95,23.2974963 Z" id="路径" fill="#494949"></path>
                <path d="M128,12.0028541 L128,10.2904031 L120.40718,10.2904031 C121.153768,8.24789012 121.717581,6.14278171 122.091944,4 L120.304729,4 C119.377949,8.69237507 117.673357,13.1957396 115.261821,17.3228684 L116.400175,19.1951481 L117.197023,17.6082768 C117.492995,17.0831252 117.732049,16.637888 117.914186,16.2953978 C118.237456,20.1092481 119.175501,23.8452501 120.691769,27.3578309 C119.156436,29.8836777 117.235879,32.1526129 115,34.0820549 L115,34.0820549 L115.978984,35.7945059 L115.978984,35.8515876 L116.035902,35.8515876 C118.218529,33.9432842 120.095935,31.710087 121.602452,29.2301106 C123.069984,31.6785905 124.836725,33.933649 126.861646,35.9429183 L126.918564,36 L127.931699,34.2418837 L127.931699,34.2418837 L127.931699,34.2418837 C125.825257,32.3097798 124.031725,30.0604421 122.615587,27.5747413 C124.550788,24.0242597 125.757443,18.8069925 126.212785,12.0827685 L128,12.0028541 Z M121.670753,25.3485551 C120.351523,21.5419798 119.517701,17.5833407 119.189142,13.5668926 C119.369344,13.0328888 119.582241,12.5105494 119.82662,12.0028541 L124.380035,12.0028541 C124.257932,16.5756083 123.341086,21.0919175 121.670753,25.3485551 L121.670753,25.3485551 Z" id="形状" fill="#494949"></path>
                <path d="M198,10.4 L198,8.59081272 L183.368091,8.59081272 L183.368091,4 L181.494842,4 L181.494842,8.59081272 L167,8.59081272 L167,10.4 L181.494842,10.4 L181.494842,16.4381625 L172.094326,16.4381625 L172.094326,18.1003534 C173.259774,20.5056682 174.717366,22.7612073 176.434783,24.8169611 C177.737473,26.3885695 179.191099,27.8313692 180.775239,29.1250883 C176.747292,31.5869076 172.293687,33.2890996 167.639646,34.145583 L168.713338,36 C173.513154,34.8228945 178.085577,32.8748004 182.24871,30.2332155 C186.110417,32.9582389 190.489268,34.8814099 195.121592,35.8869258 L195.121592,35.8869258 L195.886883,34.4621908 C194.172447,33.9858336 192.483581,33.423506 190.826824,32.7773852 C188.259617,31.8018406 185.808218,30.5505454 183.516581,29.0459364 C187.616547,26.0331186 190.782062,21.9436527 192.654385,17.2409894 L191.283714,16.4381625 L183.402358,16.4381625 L183.402358,10.4 L198,10.4 Z M190.586957,18.0325088 C188.807445,22.038302 185.91098,25.4587186 182.237288,27.8925795 C178.74095,25.2685019 175.90643,21.8780522 173.956153,17.9872792 L190.586957,18.0325088 Z" id="形状" fill="#494949"></path>
                <path d="M220.875,34.154569 L219.818182,34.154569 L219.818182,35.9697267 L221.420455,35.9697267 C222.717878,36.1191141 224.017773,35.7109256 224.988636,34.849259 C225.795055,33.9195011 226.180962,32.7051116 226.056818,31.487856 L226.056818,14.5912033 L231,14.5912033 L231,12.7760457 L226.045455,12.7760457 L226.045455,5 L224.193182,5 L224.193182,12.7760457 L209,12.7760457 L209,14.5912033 L224.193182,14.5912033 L224.193182,31.4654466 C224.204545,33.2918089 223.056818,34.154569 220.875,34.154569 Z" id="路径" fill="#494949"></path>
                <path d="M217.032587,28 L219,26.9263959 C217.949084,24.927665 216.556008,22.2664975 214.796334,19 L213,19.9822335 C214.209776,22.1865482 215.553971,24.8705584 217.032587,28 Z" id="路径" fill="#494949"></path>
            </g>
        </g>
    </g>
</svg>